<?xml version="1.0" encoding="UTF-8" standalone="yes"?>
<svg xmlns="http://www.w3.org/2000/svg" height="452" width="452">
<script type="text/ecmascript">
      <![CDATA[
        var shown = 1;
        function click() {
             var seq = document.getElementById("seq");
             if (shown==1) {
               seq.setAttribute("style", "visibility: hidden");
               shown = 0;
             } else {
               seq.setAttribute("style", "visibility: visible");
               shown = 1;
             }
         }
        ]]>
</script>
  <rect style="stroke: white; fill: white" height="452" x="0" y="0" width="452" onclick="click(evt)" />
  <g transform="scale(1.582583,1.582583) translate(37.805000,34.447327)">
    <polyline style="stroke: black; fill: none; stroke-width: 1.5" id="outline" points="
      111.337,-8.543
      110.612,6.440
      109.887,21.422
      109.163,36.405
      108.438,51.387
      107.713,66.370
      106.989,81.352
      90.306,83.866
      77.432,93.395
      70.899,107.081
      55.938,105.995
      40.978,104.908
      26.017,103.822
      12.757,94.172
      -2.117,101.077
      -3.305,117.433
      10.416,126.415
      24.931,118.782
      39.891,119.869
      54.852,120.955
      69.812,122.042
      76.100,135.909
      88.284,145.041
      86.117,159.884
      83.949,174.726
      81.782,189.569
      67.693,195.853
      59.256,208.770
      59.165,224.197
      67.449,237.212
      81.463,243.662
      96.736,241.488
      108.395,231.385
      112.720,216.576
      108.329,201.787
      96.625,191.736
      98.792,176.894
      100.959,162.051
      103.127,147.209
      113.786,145.296
      123.461,139.652
      130.848,130.746
      134.857,119.496
      134.763,107.183
      149.654,105.375
      164.544,103.566
      179.435,101.758
      192.900,110.481
      208.068,105.256
      213.304,90.091
      204.591,76.620
      188.613,75.177
      177.627,86.868
      162.736,88.676
      147.846,90.484
      132.955,92.292
      121.971,82.077
      122.696,67.094
      123.421,52.112
      124.145,37.129
      124.870,22.147
      125.595,7.164
      126.319,-7.818
      129.438,-26.947
    " />
    <g style="stroke: black; stroke-width: 1; fill: none;" id="pairs">
      <line id="1,63" x1="111.33685" y1="-8.54288" x2="126.31933" y2="-7.81818" />
      <line id="2,62" x1="110.61214" y1="6.43961" x2="125.59463" y2="7.16431" />
      <line id="3,61" x1="109.88744" y1="21.42209" x2="124.86993" y2="22.14679" />
      <line id="4,60" x1="109.16274" y1="36.40457" x2="124.14523" y2="37.12927" />
      <line id="5,59" x1="108.43804" y1="51.38705" x2="123.42052" y2="52.11176" />
      <line id="6,58" x1="107.71334" y1="66.36954" x2="122.69582" y2="67.09424" />
      <line id="7,57" x1="106.98864" y1="81.35202" x2="121.97112" y2="82.07672" />
      <line id="10,21" x1="70.89890" y1="107.08110" x2="69.81238" y2="122.04170" />
      <line id="11,20" x1="55.93830" y1="105.99458" x2="54.85178" y2="120.95518" />
      <line id="12,19" x1="40.97770" y1="104.90806" x2="39.89118" y2="119.86865" />
      <line id="13,18" x1="26.01711" y1="103.82153" x2="24.93059" y2="118.78214" />
      <line id="23,39" x1="88.28413" y1="145.04121" x2="103.12673" y2="147.20856" />
      <line id="24,38" x1="86.11680" y1="159.88382" x2="100.95940" y2="162.05115" />
      <line id="25,37" x1="83.94946" y1="174.72641" x2="98.79206" y2="176.89374" />
      <line id="26,36" x1="81.78213" y1="189.56900" x2="96.62473" y2="191.73634" />
      <line id="44,56" x1="134.76320" y1="107.18259" x2="132.95515" y2="92.29196" />
      <line id="45,55" x1="149.65384" y1="105.37454" x2="147.84579" y2="90.48391" />
      <line id="46,54" x1="164.54446" y1="103.56650" x2="162.73642" y2="88.67586" />
      <line id="47,53" x1="179.43510" y1="101.75845" x2="177.62706" y2="86.86781" />
    </g>
    <g style="font-family: SansSerif" transform="translate(-4.6, 4)" id="seq">
      <text x="111.337" y="-8.543">A</text>
      <text x="110.612" y="6.440">C</text>
      <text x="109.887" y="21.422">U</text>
      <text x="109.163" y="36.405">U</text>
      <text x="108.438" y="51.387">A</text>
      <text x="107.713" y="66.370">A</text>
      <text x="106.989" y="81.352">A</text>
      <text x="90.306" y="83.866">U</text>
      <text x="77.432" y="93.395">A</text>
      <text x="70.899" y="107.081">A</text>
      <text x="55.938" y="105.995">U</text>
      <text x="40.978" y="104.908">U</text>
      <text x="26.017" y="103.822">U</text>
      <text x="12.757" y="94.172">A</text>
      <text x="-2.117" y="101.077">A</text>
      <text x="-3.305" y="117.433">A</text>
      <text x="10.416" y="126.415">A</text>
      <text x="24.931" y="118.782">A</text>
      <text x="39.891" y="119.869">A</text>
      <text x="54.852" y="120.955">A</text>
      <text x="69.812" y="122.042">U</text>
      <text x="76.100" y="135.909">A</text>
      <text x="88.284" y="145.041">U</text>
      <text x="86.117" y="159.884">U</text>
      <text x="83.949" y="174.726">G</text>
      <text x="81.782" y="189.569">A</text>
      <text x="67.693" y="195.853">U</text>
      <text x="59.256" y="208.770">U</text>
      <text x="59.165" y="224.197">U</text>
      <text x="67.449" y="237.212">G</text>
      <text x="81.463" y="243.662">U</text>
      <text x="96.736" y="241.488">G</text>
      <text x="108.395" y="231.385">G</text>
      <text x="112.720" y="216.576">A</text>
      <text x="108.329" y="201.787">U</text>
      <text x="96.625" y="191.736">U</text>
      <text x="98.792" y="176.894">C</text>
      <text x="100.959" y="162.051">A</text>
      <text x="103.127" y="147.209">A</text>
      <text x="113.786" y="145.296">A</text>
      <text x="123.461" y="139.652">A</text>
      <text x="130.848" y="130.746">A</text>
      <text x="134.857" y="119.496">U</text>
      <text x="134.763" y="107.183">A</text>
      <text x="149.654" y="105.375">U</text>
      <text x="164.544" y="103.566">G</text>
      <text x="179.435" y="101.758">A</text>
      <text x="192.900" y="110.481">G</text>
      <text x="208.068" y="105.256">U</text>
      <text x="213.304" y="90.091">U</text>
      <text x="204.591" y="76.620">A</text>
      <text x="188.613" y="75.177">A</text>
      <text x="177.627" y="86.868">U</text>
      <text x="162.736" y="88.676">C</text>
      <text x="147.846" y="90.484">A</text>
      <text x="132.955" y="92.292">U</text>
      <text x="121.971" y="82.077">U</text>
      <text x="122.696" y="67.094">U</text>
      <text x="123.421" y="52.112">U</text>
      <text x="124.145" y="37.129">A</text>
      <text x="124.870" y="22.147">G</text>
      <text x="125.595" y="7.164">G</text>
      <text x="126.319" y="-7.818">U</text>
      <text x="129.438" y="-26.947">U</text>
    </g>
  </g>
</svg>
