<?xml version="1.0" encoding="UTF-8" standalone="yes"?>
<svg xmlns="http://www.w3.org/2000/svg" height="452" width="452">
<script type="text/ecmascript">
      <![CDATA[
        var shown = 1;
        function click() {
             var seq = document.getElementById("seq");
             if (shown==1) {
               seq.setAttribute("style", "visibility: hidden");
               shown = 0;
             } else {
               seq.setAttribute("style", "visibility: visible");
               shown = 1;
             }
         }
        ]]>
</script>
  <rect style="stroke: white; fill: white" height="452" x="0" y="0" width="452" onclick="click(evt)" />
  <g transform="scale(1.546556,1.546556) translate(41.519997,40.917603)">
    <polyline style="stroke: black; fill: none; stroke-width: 1.5" id="outline" points="
      110.753,-14.975
      110.060,0.009
      109.367,14.993
      108.674,29.977
      107.982,44.961
      107.289,59.945
      106.596,74.929
      89.754,77.697
      76.912,87.573
      70.632,101.561
      55.648,100.869
      40.664,100.176
      25.680,99.483
      15.219,87.636
      -0.559,86.739
      -12.295,97.325
      -13.025,113.112
      -2.316,124.735
      13.478,125.298
      24.987,114.467
      39.971,115.160
      54.955,115.853
      69.939,116.545
      76.858,130.565
      89.787,139.354
      88.403,154.290
      87.019,169.226
      85.635,184.162
      84.251,199.098
      71.294,207.852
      67.044,222.901
      73.510,237.140
      87.637,243.845
      102.756,239.850
      111.727,227.042
      110.316,211.468
      99.187,200.482
      100.571,185.546
      101.955,170.610
      103.339,155.674
      104.723,140.738
      115.034,138.406
      124.273,132.559
      131.245,123.667
      134.952,112.609
      134.738,100.584
      149.594,98.511
      164.450,96.439
      179.306,94.367
      194.162,92.294
      209.149,98.951
      222.247,89.083
      219.982,72.841
      204.683,66.934
      192.090,77.438
      177.234,79.511
      162.378,81.583
      147.521,83.655
      132.665,85.728
      121.580,75.622
      122.273,60.638
      122.966,45.654
      123.658,30.670
      124.351,15.686
      125.044,0.702
      125.737,-14.282
      128.815,-33.418
    " />
    <g style="stroke: black; stroke-width: 1; fill: none;" id="pairs">
      <line id="1,66" x1="110.75266" y1="-14.97461" x2="125.73666" y2="-14.28186" />
      <line id="2,65" x1="110.05991" y1="0.00938" x2="125.04391" y2="0.70213" />
      <line id="3,64" x1="109.36716" y1="14.99338" x2="124.35116" y2="15.68613" />
      <line id="4,63" x1="108.67441" y1="29.97737" x2="123.65841" y2="30.67014" />
      <line id="5,62" x1="107.98166" y1="44.96136" x2="122.96565" y2="45.65413" />
      <line id="6,61" x1="107.28891" y1="59.94536" x2="122.27290" y2="60.63812" />
      <line id="7,60" x1="106.59615" y1="74.92937" x2="121.58015" y2="75.62212" />
      <line id="10,23" x1="70.63216" y1="101.56126" x2="69.93941" y2="116.54526" />
      <line id="11,22" x1="55.64816" y1="100.86852" x2="54.95541" y2="115.85251" />
      <line id="12,21" x1="40.66417" y1="100.17576" x2="39.97142" y2="115.15975" />
      <line id="13,20" x1="25.68017" y1="99.48301" x2="24.98742" y2="114.46700" />
      <line id="25,41" x1="89.78738" y1="139.35410" x2="104.72340" y2="140.73811" />
      <line id="26,40" x1="88.40336" y1="154.29010" x2="103.33937" y2="155.67413" />
      <line id="27,39" x1="87.01933" y1="169.22610" x2="101.95535" y2="170.61014" />
      <line id="28,38" x1="85.63531" y1="184.16212" x2="100.57132" y2="185.54614" />
      <line id="29,37" x1="84.25128" y1="199.09814" x2="99.18729" y2="200.48216" />
      <line id="46,59" x1="134.73763" y1="100.58370" x2="132.66528" y2="85.72755" />
      <line id="47,58" x1="149.59378" y1="98.51136" x2="147.52144" y2="83.65520" />
      <line id="48,57" x1="164.44994" y1="96.43901" x2="162.37759" y2="81.58286" />
      <line id="49,56" x1="179.30609" y1="94.36667" x2="177.23375" y2="79.51051" />
      <line id="50,55" x1="194.16226" y1="92.29432" x2="192.08990" y2="77.43817" />
    </g>
    <g style="font-family: SansSerif" transform="translate(-4.6, 4)" id="seq">
      <text x="110.753" y="-14.975">A</text>
      <text x="110.060" y="0.009">A</text>
      <text x="109.367" y="14.993">G</text>
      <text x="108.674" y="29.977">G</text>
      <text x="107.982" y="44.961">U</text>
      <text x="107.289" y="59.945">U</text>
      <text x="106.596" y="74.929">U</text>
      <text x="89.754" y="77.697">U</text>
      <text x="76.912" y="87.573">A</text>
      <text x="70.632" y="101.561">A</text>
      <text x="55.648" y="100.869">G</text>
      <text x="40.664" y="100.176">U</text>
      <text x="25.680" y="99.483">U</text>
      <text x="15.219" y="87.636">A</text>
      <text x="-0.559" y="86.739">A</text>
      <text x="-12.295" y="97.325">A</text>
      <text x="-13.025" y="113.112">U</text>
      <text x="-2.316" y="124.735">U</text>
      <text x="13.478" y="125.298">A</text>
      <text x="24.987" y="114.467">A</text>
      <text x="39.971" y="115.160">A</text>
      <text x="54.955" y="115.853">C</text>
      <text x="69.939" y="116.545">U</text>
      <text x="76.858" y="130.565">A</text>
      <text x="89.787" y="139.354">A</text>
      <text x="88.403" y="154.290">U</text>
      <text x="87.019" y="169.226">A</text>
      <text x="85.635" y="184.162">A</text>
      <text x="84.251" y="199.098">U</text>
      <text x="71.294" y="207.852">C</text>
      <text x="67.044" y="222.901">U</text>
      <text x="73.510" y="237.140">U</text>
      <text x="87.637" y="243.845">C</text>
      <text x="102.756" y="239.850">A</text>
      <text x="111.727" y="227.042">A</text>
      <text x="110.316" y="211.468">A</text>
      <text x="99.187" y="200.482">A</text>
      <text x="100.571" y="185.546">U</text>
      <text x="101.955" y="170.610">U</text>
      <text x="103.339" y="155.674">A</text>
      <text x="104.723" y="140.738">U</text>
      <text x="115.034" y="138.406">U</text>
      <text x="124.273" y="132.559">U</text>
      <text x="131.245" y="123.667">A</text>
      <text x="134.952" y="112.609">U</text>
      <text x="134.738" y="100.584">A</text>
      <text x="149.594" y="98.511">A</text>
      <text x="164.450" y="96.439">A</text>
      <text x="179.306" y="94.367">G</text>
      <text x="194.162" y="92.294">A</text>
      <text x="209.149" y="98.951">A</text>
      <text x="222.247" y="89.083">A</text>
      <text x="219.982" y="72.841">U</text>
      <text x="204.683" y="66.934">U</text>
      <text x="192.090" y="77.438">U</text>
      <text x="177.234" y="79.511">C</text>
      <text x="162.378" y="81.583">U</text>
      <text x="147.521" y="83.655">U</text>
      <text x="132.665" y="85.728">U</text>
      <text x="121.580" y="75.622">A</text>
      <text x="122.273" y="60.638">A</text>
      <text x="122.966" y="45.654">G</text>
      <text x="123.658" y="30.670">C</text>
      <text x="124.351" y="15.686">C</text>
      <text x="125.044" y="0.702">U</text>
      <text x="125.737" y="-14.282">U</text>
      <text x="128.815" y="-33.418">A</text>
    </g>
  </g>
</svg>
