<?xml version="1.0" encoding="UTF-8" standalone="yes"?>
<svg xmlns="http://www.w3.org/2000/svg" height="452" width="452">
<script type="text/ecmascript">
      <![CDATA[
        var shown = 1;
        function click() {
             var seq = document.getElementById("seq");
             if (shown==1) {
               seq.setAttribute("style", "visibility: hidden");
               shown = 0;
             } else {
               seq.setAttribute("style", "visibility: visible");
               shown = 1;
             }
         }
        ]]>
</script>
  <rect style="stroke: white; fill: white" height="452" x="0" y="0" width="452" onclick="click(evt)" />
  <g transform="scale(0.288607,0.288607) translate(374.082153,645.681458)">
    <polyline style="stroke: black; fill: none; stroke-width: 1.5" id="outline" points="
      49.879,-57.714
      45.666,-72.110
      41.453,-86.506
      37.240,-100.903
      33.027,-115.299
      33.469,-130.292
      19.346,-135.346
      10.175,-123.476
      18.631,-111.086
      22.844,-96.690
      27.057,-82.293
      31.269,-67.897
      35.482,-53.501
      39.695,-39.105
      43.908,-24.709
      48.121,-10.312
      52.334,4.084
      56.547,18.480
      60.760,32.876
      64.973,47.272
      69.186,61.669
      61.988,63.775
      52.045,52.544
      64.824,60.398
      78.004,67.560
      91.547,74.009
      105.414,79.729
      119.565,84.702
      133.962,88.914
      148.562,92.353
      163.325,95.010
      178.208,96.878
      193.170,97.950
      208.167,98.223
      223.158,97.698
      238.100,96.375
      252.950,94.259
      267.666,91.354
      282.206,87.670
      296.530,83.217
      310.596,78.007
      324.365,72.056
      337.798,65.380
      350.855,57.998
      363.502,49.931
      375.700,41.202
      387.417,31.836
      398.618,21.860
      409.272,11.301
      419.349,0.189
      428.819,-11.443
      437.657,-23.563
      445.837,-36.136
      453.335,-49.128
      460.131,-62.500
      466.205,-76.215
      471.541,-90.234
      476.122,-104.517
      479.936,-119.024
      482.972,-133.714
      485.222,-148.544
      486.678,-163.473
      487.338,-178.459
      487.198,-193.458
      486.260,-208.429
      484.526,-223.328
      482.002,-238.114
      478.693,-252.745
      474.610,-267.178
      469.764,-281.374
      464.169,-295.291
      457.841,-308.891
      450.797,-322.135
      443.058,-334.984
      434.646,-347.403
      425.585,-359.357
      415.900,-370.811
      405.618,-381.733
      394.770,-392.092
      383.385,-401.859
      371.497,-411.006
      359.138,-419.506
      346.344,-427.337
      333.151,-434.474
      319.597,-440.900
      305.720,-446.594
      291.559,-451.541
      277.155,-455.727
      262.548,-459.140
      247.781,-461.771
      232.894,-463.611
      217.930,-464.656
      202.932,-464.902
      187.943,-464.350
      173.003,-463.000
      158.157,-460.856
      143.447,-457.925
      128.913,-454.215
      114.597,-449.736
      100.540,-444.501
      86.782,-438.524
      73.362,-431.824
      60.317,-424.418
      47.686,-416.329
      35.503,-407.578
      23.803,-398.191
      12.620,-388.194
      1.986,-377.615
      -8.071,-366.486
      -17.520,-354.836
      -26.336,-342.700
      -34.493,-330.112
      -41.968,-317.107
      -48.740,-303.723
      -54.789,-289.997
      -60.099,-275.968
      -64.654,-261.676
      -68.442,-247.163
      -71.452,-232.468
      -73.674,-217.633
      -75.104,-202.701
      -75.736,-187.715
      -75.570,-172.716
      -74.604,-157.747
      -72.844,-142.850
      -70.292,-128.069
      -66.957,-113.445
      -62.847,-99.018
      -57.976,-84.832
      -52.355,-70.924
      -46.003,-57.336
      -38.935,-44.105
      -31.173,-31.270
      -22.739,-18.866
      -13.656,-6.929
      -3.950,4.508
      6.352,15.411
      17.219,25.751
      28.630,35.504
      14.886,29.496
      1.141,23.488
      -12.603,17.480
      -26.347,11.471
      -35.635,-2.044
      -51.960,-0.489
      -58.529,14.537
      -48.583,27.577
      -32.355,25.216
      -18.611,31.224
      -4.867,37.232
      8.877,43.240
      22.622,49.248
      8.325,53.788
      0.764,66.743
      3.842,81.424
      15.970,90.251
      30.886,88.667
      40.889,77.490
      40.814,62.488
      50.757,73.719
      41.440,80.108
      32.902,87.339
      25.217,95.318
      18.449,103.948
      12.649,113.127
      7.860,122.749
      4.110,132.704
      1.418,142.881
      -0.211,153.171
      -0.780,163.462
      -15.769,162.895
      -30.759,162.328
      -45.748,161.761
      -60.737,161.193
      -75.705,160.208
      -90.639,158.807
      -105.574,157.405
      -109.381,142.733
      -117.979,130.249
      -130.330,121.461
      -144.943,117.431
      -160.052,118.644
      -173.834,124.955
      -184.625,135.602
      -191.120,149.298
      -192.536,164.390
      -188.703,179.055
      -180.081,191.523
      -167.714,200.288
      -153.094,204.292
      -137.987,203.051
      -124.216,196.714
      -113.445,186.048
      -106.975,172.340
      -92.041,173.741
      -77.106,175.143
      -91.264,180.098
      -102.462,190.079
      -109.006,203.576
      -109.908,218.549
      -105.032,232.734
      -95.113,243.986
      -81.652,250.605
      -66.685,251.590
      -52.473,246.792
      -41.166,236.936
      -34.472,223.512
      -33.405,208.550
      -38.124,194.312
      -47.918,182.950
      -61.305,176.183
      -46.315,176.750
      -31.326,177.317
      -16.337,177.884
      -1.347,178.452
      2.174,201.517
      10.873,223.167
      -1.745,231.279
      -14.362,239.391
      -26.979,247.502
      -39.597,255.614
      -52.214,263.726
      -64.831,271.838
      -77.449,279.950
      -90.066,288.062
      -79.625,277.292
      -70.211,265.614
      -61.902,253.126
      -54.769,239.930
      -48.870,226.139
      -44.256,211.866
      -40.964,197.232
      -39.022,182.358
      -38.447,167.369
      -39.242,152.390
      -41.402,137.547
      -44.908,122.962
      -49.732,108.759
      -55.832,95.055
      -63.158,81.966
      -71.649,69.601
      -81.234,58.062
      -91.832,47.447
      -103.355,37.844
      -115.707,29.333
      -128.784,21.986
      -142.478,15.864
      -156.673,11.017
      -171.252,7.487
      -186.092,5.303
      -201.070,4.484
      -216.060,5.035
      -230.937,6.953
      -245.576,10.222
      -259.856,14.813
      -273.657,20.689
      -286.864,27.801
      -299.366,36.090
      -311.059,45.485
      -321.846,55.909
      -331.635,67.274
      -340.346,79.486
      -347.905,92.442
      -354.250,106.034
      -359.327,120.148
      -363.093,134.668
      -365.519,149.470
      -366.582,164.433
      -366.275,179.429
      -364.600,194.336
      -361.570,209.026
      -357.212,223.379
      -351.561,237.274
      -344.665,250.595
      -336.581,263.231
      -327.378,275.075
      -317.131,286.030
      -305.927,296.003
      -293.859,304.912
      -281.028,312.681
      -267.541,319.246
      -253.511,324.552
      -239.054,328.555
      -224.293,331.221
      -209.350,332.528
      -194.350,332.465
      -179.419,331.033
      -164.681,328.243
      -150.259,324.119
      -136.274,318.695
      -122.842,312.017
      -110.068,304.134
      -120.706,314.709
      -136.689,318.381
      -141.241,334.136
      -129.680,345.766
      -113.899,341.308
      -110.131,325.348
      -99.493,314.773
      -105.126,328.675
      -104.824,343.672
      -98.638,357.337
      -87.568,367.459
      -73.405,372.400
      -58.441,371.361
      -45.098,364.509
      -35.533,352.954
      -31.295,338.565
      -33.070,323.671
      -40.570,310.680
      -52.582,301.696
      -67.162,298.172
      -81.954,300.679
      -69.337,292.567
      -56.719,284.455
      -44.102,276.344
      -31.485,268.232
      -18.867,260.120
      -6.250,252.008
      6.367,243.896
      18.985,235.784
      24.156,243.382
      30.043,250.539
      36.607,257.188
      43.804,263.264
      51.584,268.709
      45.823,282.558
      40.062,296.408
      34.301,310.257
      26.387,311.909
      19.807,316.442
      15.544,323.091
      14.204,330.781
      15.925,338.298
      20.368,344.488
      5.475,348.428
      -4.130,360.243
      -4.927,375.270
      3.181,387.736
      -2.358,401.676
      -7.898,415.615
      -13.438,429.555
      -28.598,432.412
      -39.792,443.028
      -43.446,458.017
      -38.396,472.594
      -26.252,482.109
      -10.890,483.525
      2.789,476.391
      10.419,462.982
      9.566,447.579
      0.502,435.095
      6.042,421.155
      11.581,407.215
      17.121,393.276
      31.574,389.775
      41.309,378.300
      42.434,363.115
      34.308,350.028
      52.390,338.075
      48.151,316.018
      53.912,302.169
      59.673,288.319
      65.434,274.470
      72.797,275.894
      69.948,290.621
      67.098,305.348
      64.249,320.075
      61.399,334.802
      58.550,349.529
      55.701,364.255
      52.851,378.982
      57.747,393.161
      67.578,381.832
      70.427,367.105
      73.277,352.378
      76.126,337.651
      78.976,322.924
      81.825,308.197
      84.675,293.471
      87.524,278.744
      94.887,280.168
      95.067,295.167
      87.495,309.059
      95.383,321.693
      83.052,328.158
      74.729,339.236
      71.978,352.751
      75.278,366.073
      83.935,376.639
      96.228,382.440
      96.467,397.438
      96.706,412.436
      96.945,427.434
      88.504,441.494
      96.696,455.701
      113.093,455.440
      120.827,440.979
      111.943,427.195
      111.704,412.197
      111.465,397.199
      111.226,382.201
      125.326,374.197
      133.483,360.075
      133.370,343.674
      124.922,329.504
      110.382,321.514
      117.967,308.695
      110.066,294.988
      109.886,279.989
      123.520,277.317
      136.624,272.894
      148.977,266.813
      160.370,259.195
      170.616,250.184
      179.546,239.952
      187.017,228.685
      192.915,216.589
      197.149,203.881
      211.798,207.111
      226.439,210.369
      241.075,213.657
      248.652,218.536
      255.775,216.929
      270.423,220.158
      285.071,223.388
      299.719,226.618
      314.367,229.847
      329.016,233.077
      343.664,236.306
      358.312,239.536
      360.856,261.005
      371.401,279.846
      388.325,293.207
      409.043,299.076
      430.404,296.582
      449.164,286.126
      462.485,269.314
      476.624,274.323
      490.763,279.331
      504.902,284.340
      519.041,289.348
      503.847,312.011
      511.440,347.142
      547.786,375.398
      560.594,383.206
      573.401,391.014
      586.209,398.822
      599.017,406.630
      611.824,414.439
      624.632,422.247
      637.439,430.055
      650.231,437.889
      663.007,445.748
      659.719,455.821
      660.513,467.260
      665.899,478.364
      675.669,487.264
      688.859,492.232
      696.895,504.897
      704.932,517.563
      699.093,531.940
      702.853,546.995
      714.765,556.938
      730.250,557.947
      743.352,549.634
      749.034,535.195
      745.111,520.182
      733.091,510.368
      717.597,509.527
      709.561,496.861
      701.524,484.195
      706.518,478.600
      717.709,488.588
      728.900,498.576
      740.091,508.564
      754.777,511.618
      750.079,497.373
      738.888,487.385
      727.697,477.397
      716.506,467.409
      721.500,461.813
      734.994,468.364
      748.489,474.914
      761.983,481.465
      775.477,488.015
      788.971,494.566
      802.465,501.116
      802.730,515.037
      808.913,527.438
      819.769,535.944
      833.160,538.953
      846.483,535.939
      857.171,527.540
      870.691,534.037
      876.976,540.496
      884.277,540.532
      897.823,546.975
      901.765,552.043
      906.890,554.133
      911.503,553.415
      925.100,559.750
      938.696,566.084
      952.293,572.419
      965.852,578.835
      979.372,585.332
      992.892,591.828
      1006.399,598.352
      1019.893,604.903
      1033.387,611.453
      1031.179,626.534
      1035.989,641.976
      1047.631,654.509
      1064.407,661.141
      1083.336,659.840
      1096.356,667.288
      1093.569,677.178
      1095.110,688.358
      1101.486,698.879
      1112.318,706.633
      1126.321,709.749
      1139.281,717.301
      1152.242,724.853
      1159.911,739.348
      1176.306,739.684
      1184.562,725.515
      1176.186,711.416
      1159.794,711.892
      1146.833,704.340
      1133.873,696.789
      1137.453,690.199
      1148.195,670.429
      1172.639,674.376
      1154.960,657.041
      1136.981,643.383
      1117.148,643.561
      1103.804,654.268
      1090.784,646.820
      1093.911,640.002
      1107.545,646.256
      1122.479,644.854
      1113.798,632.622
      1100.164,626.368
      1103.291,619.551
      1117.430,624.559
      1131.569,629.568
      1139.744,643.372
      1155.653,645.444
      1167.091,634.194
      1165.285,618.253
      1151.619,609.849
      1136.577,615.429
      1122.438,610.420
      1108.299,605.412
      1099.433,592.568
      1087.103,584.080
      1073.177,580.691
      1059.590,582.410
      1048.073,588.568
      1039.938,597.959
      1026.443,591.408
      1012.949,584.858
      1008.359,579.180
      999.388,578.308
      985.868,571.812
      972.348,565.315
      970.846,562.248
      967.845,559.718
      963.596,558.396
      958.628,558.822
      945.031,552.488
      931.434,546.153
      917.838,539.818
      904.266,533.429
      890.720,526.986
      877.187,520.517
      863.667,514.020
      862.817,497.829
      853.838,484.216
      839.118,476.979
      822.667,478.194
      809.016,487.622
      795.521,481.072
      782.027,474.521
      768.533,467.971
      755.039,461.420
      741.545,454.870
      728.051,448.319
      712.320,426.563
      688.813,421.859
      670.866,432.971
      658.090,425.112
      654.087,419.006
      645.247,417.247
      632.440,409.439
      619.632,401.631
      606.825,393.823
      594.017,386.015
      581.210,378.207
      568.402,370.398
      555.595,362.590
      557.049,355.232
      570.145,362.545
      581.147,352.350
      574.850,338.735
      559.957,340.517
      561.411,333.159
      576.226,330.810
      591.040,328.460
      605.855,326.111
      625.218,325.258
      622.182,306.116
      603.506,311.296
      588.691,313.646
      573.876,315.995
      559.061,318.344
      557.200,311.079
      571.730,307.356
      586.261,303.632
      600.791,299.909
      597.067,285.378
      582.537,289.102
      568.007,292.825
      553.476,296.549
      551.615,289.283
      565.734,284.219
      579.853,279.154
      593.972,274.089
      608.091,269.024
      622.210,263.960
      636.329,258.895
      649.743,266.932
      665.177,264.416
      675.343,252.534
      675.441,236.896
      665.426,224.887
      650.025,222.177
      636.511,230.045
      631.264,244.776
      617.145,249.841
      603.026,254.905
      588.907,259.970
      574.788,265.035
      560.669,270.100
      546.550,275.164
      558.630,266.272
      564.944,252.666
      563.934,237.700
      555.850,225.065
      542.685,217.876
      527.685,217.906
      514.549,225.148
      506.516,237.816
      505.566,252.785
      511.935,266.366
      524.050,275.209
      509.911,270.201
      495.772,265.192
      481.632,260.184
      467.493,255.175
      468.454,248.449
      468.577,241.655
      467.862,234.899
      466.320,228.281
      463.973,221.905
      460.858,215.867
      472.569,206.494
      484.281,197.122
      495.992,187.750
      507.704,178.377
      519.415,169.005
      533.692,174.666
      548.885,172.415
      560.907,162.856
      566.524,148.561
      564.225,133.375
      554.628,121.383
      540.315,115.811
      525.137,118.158
      513.175,127.792
      507.648,142.122
      510.043,157.293
      498.331,166.666
      486.620,176.038
      474.908,185.411
      463.197,194.783
      451.485,204.155
      443.767,197.992
      435.064,193.304
      425.656,190.244
      415.843,188.916
      405.943,189.363
      396.274,191.575
      387.149,195.484
      378.863,200.966
      371.685,207.846
      365.847,215.906
      361.542,224.888
      346.893,221.658
      332.245,218.429
      317.597,215.199
      302.949,211.969
      288.301,208.740
      273.652,205.510
      259.004,202.281
      244.362,199.022
      229.727,195.734
      223.959,191.258
      215.027,192.462
      200.379,189.233
      201.976,180.703
      202.844,172.006
      202.967,163.205
      202.332,154.363
      200.934,145.547
      198.774,136.822
      195.855,128.254
      192.191,119.911
      187.797,111.856
      182.697,104.154
      176.919,96.867
      170.498,90.056
      163.472,83.776
      155.885,78.081
      147.788,73.022
      154.257,59.489
      160.727,45.956
      167.197,32.423
      180.130,23.310
      178.639,8.490
      193.227,1.814
      196.963,-13.788
      186.981,-26.347
      170.938,-26.229
      161.141,-13.525
      165.106,2.021
      152.636,10.166
      153.664,25.954
      147.194,39.487
      140.724,53.020
      134.255,66.553
      127.091,64.332
      131.533,50.004
      135.974,35.677
      140.416,21.350
      144.858,7.023
      149.299,-7.305
      153.741,-21.632
      158.183,-35.959
      143.855,-40.401
      139.414,-26.074
      134.972,-11.746
      130.530,2.581
      126.089,16.908
      121.647,31.235
      117.205,45.563
      112.764,59.890
      105.600,57.669
      107.920,42.850
      110.240,28.030
      112.560,13.211
      114.880,-1.609
      117.200,-16.428
      119.520,-31.248
      121.840,-46.067
      124.160,-60.887
      126.480,-75.706
      137.193,-88.123
      131.542,-103.517
      115.340,-106.054
      105.254,-93.123
      111.660,-78.026
      109.340,-63.207
      107.020,-48.387
      104.700,-33.568
      102.380,-18.748
      100.060,-3.929
      97.740,10.891
      95.420,25.710
      93.100,40.530
      90.780,55.349
      83.582,57.456
      79.369,43.059
      75.156,28.663
      70.943,14.267
      66.730,-0.129
      62.518,-14.525
      58.305,-28.922
    " />
    <g style="stroke: black; stroke-width: 1; fill: none;" id="pairs">
      <line id="22,160" x1="61.98802" y1="63.77512" x2="50.75731" y2="73.71851" />
      <line id="23,159" x1="52.04462" y1="52.54440" x2="40.81391" y2="62.48781" />
      <line id="139,152" x1="28.62972" y1="35.50398" x2="22.62157" y2="49.24814" />
      <line id="140,151" x1="14.88556" y1="29.49582" x2="8.87740" y2="43.23999" />
      <line id="141,150" x1="1.14139" y1="23.48767" x2="-4.86676" y2="37.23183" />
      <line id="142,149" x1="-12.60278" y1="17.47952" x2="-18.61093" y2="31.22368" />
      <line id="143,148" x1="-26.34694" y1="11.47137" x2="-32.35509" y2="25.21553" />
      <line id="170,215" x1="-0.78017" y1="163.46233" x2="-1.34743" y2="178.45160" />
      <line id="171,214" x1="-15.76944" y1="162.89507" x2="-16.33670" y2="177.88434" />
      <line id="172,213" x1="-30.75871" y1="162.32779" x2="-31.32597" y2="177.31708" />
      <line id="173,212" x1="-45.74798" y1="161.76053" x2="-46.31524" y2="176.74982" />
      <line id="174,211" x1="-60.73725" y1="161.19327" x2="-61.30451" y2="176.18256" />
      <line id="175,196" x1="-75.70489" y1="160.20850" x2="-77.10640" y2="175.14288" />
      <line id="176,195" x1="-90.63927" y1="158.80698" x2="-92.04079" y2="173.74136" />
      <line id="177,194" x1="-105.57365" y1="157.40547" x2="-106.97517" y2="172.33984" />
      <line id="217,321" x1="10.87281" y1="223.16673" x2="18.98471" y2="235.78407" />
      <line id="218,320" x1="-1.74452" y1="231.27863" x2="6.36737" y2="243.89597" />
      <line id="219,319" x1="-14.36186" y1="239.39053" x2="-6.24996" y2="252.00786" />
      <line id="220,318" x1="-26.97919" y1="247.50243" x2="-18.86730" y2="260.11975" />
      <line id="221,317" x1="-39.59653" y1="255.61432" x2="-31.48463" y2="268.23166" />
      <line id="222,316" x1="-52.21386" y1="263.72623" x2="-44.10197" y2="276.34354" />
      <line id="223,315" x1="-64.83120" y1="271.83810" x2="-56.71930" y2="284.45544" />
      <line id="224,314" x1="-77.44853" y1="279.95001" x2="-69.33664" y2="292.56735" />
      <line id="225,313" x1="-90.06587" y1="288.06189" x2="-81.95397" y2="300.67923" />
      <line id="292,299" x1="-110.06808" y1="304.13446" x2="-99.49319" y2="314.77271" />
      <line id="293,298" x1="-120.70631" y1="314.70935" x2="-110.13142" y2="325.34760" />
      <line id="326,364" x1="51.58408" y1="268.70862" x2="65.43369" y2="274.46954" />
      <line id="327,363" x1="45.82314" y1="282.55823" x2="59.67274" y2="288.31915" />
      <line id="328,362" x1="40.06220" y1="296.40784" x2="53.91181" y2="302.16876" />
      <line id="329,361" x1="34.30126" y1="310.25745" x2="48.15087" y2="316.01837" />
      <line id="335,359" x1="20.36805" y1="344.48828" x2="34.30765" y2="350.02792" />
      <line id="339,355" x1="3.18123" y1="387.73618" x2="17.12083" y2="393.27582" />
      <line id="340,354" x1="-2.35841" y1="401.67578" x2="11.58119" y2="407.21539" />
      <line id="341,353" x1="-7.89804" y1="415.61536" x2="6.04156" y2="421.15503" />
      <line id="342,352" x1="-13.43768" y1="429.55499" x2="0.50192" y2="435.09460" />
      <line id="382,410" x1="94.88743" y1="280.16843" x2="109.88635" y2="279.98926" />
      <line id="383,409" x1="95.06660" y1="295.16736" x2="110.06553" y2="294.98816" />
      <line id="385,407" x1="95.38347" y1="321.69290" x2="110.38240" y2="321.51373" />
      <line id="391,402" x1="96.22825" y1="382.43982" x2="111.22635" y2="382.20093" />
      <line id="392,401" x1="96.46715" y1="397.43790" x2="111.46524" y2="397.19901" />
      <line id="393,400" x1="96.70604" y1="412.43600" x2="111.70414" y2="412.19711" />
      <line id="394,399" x1="96.94494" y1="427.43408" x2="111.94303" y2="427.19519" />
      <line id="419,710" x1="197.14938" y1="203.88095" x2="200.37897" y2="189.23276" />
      <line id="420,709" x1="211.79758" y1="207.11055" x2="215.02716" y2="192.46234" />
      <line id="421,707" x1="226.43932" y1="210.36929" x2="229.72720" y2="195.73407" />
      <line id="422,706" x1="241.07454" y1="213.65717" x2="244.36243" y2="199.02194" />
      <line id="424,705" x1="255.77458" y1="216.92889" x2="259.00418" y2="202.28069" />
      <line id="425,704" x1="270.42279" y1="220.15848" x2="273.65237" y2="205.51027" />
      <line id="426,703" x1="285.07098" y1="223.38806" x2="288.30057" y2="208.73987" />
      <line id="427,702" x1="299.71918" y1="226.61765" x2="302.94876" y2="211.96944" />
      <line id="428,701" x1="314.36740" y1="229.84723" x2="317.59698" y2="215.19904" />
      <line id="429,700" x1="329.01559" y1="233.07681" x2="332.24518" y2="218.42862" />
      <line id="430,699" x1="343.66379" y1="236.30640" x2="346.89337" y2="221.65820" />
      <line id="431,698" x1="358.31198" y1="239.53598" x2="361.54156" y2="224.88779" />
      <line id="438,660" x1="462.48474" y1="269.31424" x2="467.49326" y2="255.17511" />
      <line id="439,659" x1="476.62387" y1="274.32275" x2="481.63239" y2="260.18362" />
      <line id="440,658" x1="490.76300" y1="279.33127" x2="495.77151" y2="265.19214" />
      <line id="441,657" x1="504.90210" y1="284.33975" x2="509.91061" y2="270.20065" />
      <line id="442,656" x1="519.04126" y1="289.34827" x2="524.04974" y2="275.20914" />
      <line id="445,601" x1="547.78650" y1="375.39767" x2="555.59467" y2="362.59015" />
      <line id="446,600" x1="560.59399" y1="383.20584" x2="568.40216" y2="370.39832" />
      <line id="447,599" x1="573.40149" y1="391.01404" x2="581.20966" y2="378.20651" />
      <line id="448,598" x1="586.20905" y1="398.82220" x2="594.01721" y2="386.01468" />
      <line id="449,597" x1="599.01654" y1="406.63037" x2="606.82471" y2="393.82288" />
      <line id="450,596" x1="611.82404" y1="414.43854" x2="619.63220" y2="401.63104" />
      <line id="451,595" x1="624.63153" y1="422.24670" x2="632.43976" y2="409.43921" />
      <line id="452,594" x1="637.43909" y1="430.05490" x2="645.24725" y2="417.24738" />
      <line id="453,592" x1="650.23102" y1="437.88855" x2="658.09015" y2="425.11224" />
      <line id="454,591" x1="663.00732" y1="445.74768" x2="670.86646" y2="432.97134" />
      <line id="459,472" x1="688.85870" y1="492.23187" x2="701.52429" y2="484.19547" />
      <line id="460,471" x1="696.89514" y1="504.89740" x2="709.56067" y2="496.86102" />
      <line id="461,470" x1="704.93152" y1="517.56299" x2="717.59705" y2="509.52658" />
      <line id="482,588" x1="721.50037" y1="461.81342" x2="728.05084" y2="448.31931" />
      <line id="483,587" x1="734.99445" y1="468.36392" x2="741.54498" y2="454.86981" />
      <line id="484,586" x1="748.48859" y1="474.91443" x2="755.03906" y2="461.42032" />
      <line id="485,585" x1="761.98267" y1="481.46494" x2="768.53320" y2="467.97083" />
      <line id="486,584" x1="775.47681" y1="488.01544" x2="782.02728" y2="474.52133" />
      <line id="487,583" x1="788.97089" y1="494.56592" x2="795.52142" y2="481.07184" />
      <line id="488,582" x1="802.46503" y1="501.11646" x2="809.01550" y2="487.62234" />
      <line id="494,577" x1="857.17053" y1="527.54004" x2="863.66724" y2="514.01990" />
      <line id="495,576" x1="870.69061" y1="534.03674" x2="877.18732" y2="520.51666" />
      <line id="497,575" x1="884.27747" y1="540.53229" x2="890.72034" y2="526.98645" />
      <line id="498,574" x1="897.82336" y1="546.97510" x2="904.26617" y2="533.42926" />
      <line id="501,573" x1="911.50281" y1="553.41486" x2="917.83759" y2="539.81812" />
      <line id="502,572" x1="925.09955" y1="559.74963" x2="931.43427" y2="546.15289" />
      <line id="503,571" x1="938.69623" y1="566.08435" x2="945.03101" y2="552.48767" />
      <line id="504,570" x1="952.29297" y1="572.41913" x2="958.62775" y2="558.82239" />
      <line id="505,566" x1="965.85162" y1="578.83496" x2="972.34833" y2="565.31494" />
      <line id="506,565" x1="979.37170" y1="585.33173" x2="985.86841" y2="571.81165" />
      <line id="507,564" x1="992.89178" y1="591.82843" x2="999.38849" y2="578.30835" />
      <line id="508,562" x1="1006.39886" y1="598.35205" x2="1012.94940" y2="584.85797" />
      <line id="509,561" x1="1019.89301" y1="604.90259" x2="1026.44348" y2="591.40845" />
      <line id="510,560" x1="1033.38708" y1="611.45306" x2="1039.93762" y2="597.95898" />
      <line id="515,538" x1="1083.33557" y1="659.83972" x2="1090.78381" y2="646.81958" />
      <line id="516,537" x1="1096.35571" y1="667.28790" x2="1103.80396" y2="654.26776" />
      <line id="521,530" x1="1126.32104" y1="709.74927" x2="1133.87268" y2="696.78882" />
      <line id="522,529" x1="1139.28149" y1="717.30090" x2="1146.83313" y2="704.34045" />
      <line id="523,528" x1="1152.24182" y1="724.85254" x2="1159.79358" y2="711.89215" />
      <line id="532,534" x1="1148.19531" y1="670.42859" x2="1154.95996" y2="657.04053" />
      <line id="544,554" x1="1103.29065" y1="619.55090" x2="1108.29919" y2="605.41180" />
      <line id="545,553" x1="1117.42981" y1="624.55945" x2="1122.43835" y2="610.42029" />
      <line id="546,552" x1="1131.56897" y1="629.56793" x2="1136.57739" y2="615.42883" />
      <line id="607,616" x1="561.41077" y1="333.15933" x2="559.06128" y2="318.34448" />
      <line id="608,615" x1="576.22559" y1="330.80988" x2="573.87616" y2="315.99503" />
      <line id="609,614" x1="591.04047" y1="328.46042" x2="588.69098" y2="313.64554" />
      <line id="610,613" x1="605.85535" y1="326.11093" x2="603.50586" y2="311.29608" />
      <line id="625,645" x1="551.61450" y1="289.28342" x2="546.54968" y2="275.16437" />
      <line id="626,644" x1="565.73352" y1="284.21866" x2="560.66876" y2="270.09958" />
      <line id="627,643" x1="579.85260" y1="279.15390" x2="574.78784" y2="265.03482" />
      <line id="628,642" x1="593.97168" y1="274.08911" x2="588.90692" y2="259.97006" />
      <line id="629,641" x1="608.09076" y1="269.02435" x2="603.02600" y2="254.90527" />
      <line id="630,640" x1="622.20984" y1="263.95959" x2="617.14502" y2="249.84052" />
      <line id="631,639" x1="636.32886" y1="258.89481" x2="631.26410" y2="244.77574" />
      <line id="666,687" x1="460.85760" y1="215.86670" x2="451.48526" y2="204.15521" />
      <line id="667,686" x1="472.56909" y1="206.49435" x2="463.19675" y2="194.78287" />
      <line id="668,685" x1="484.28061" y1="197.12201" x2="474.90826" y2="185.41052" />
      <line id="669,684" x1="495.99210" y1="187.74966" x2="486.61975" y2="176.03816" />
      <line id="670,683" x1="507.70358" y1="178.37732" x2="498.33124" y2="166.66582" />
      <line id="671,682" x1="519.41510" y1="169.00497" x2="510.04276" y2="157.29347" />
      <line id="725,741" x1="147.78752" y1="73.02235" x2="134.25453" y2="66.55257" />
      <line id="726,740" x1="154.25731" y1="59.48936" x2="140.72432" y2="53.01958" />
      <line id="727,739" x1="160.72711" y1="45.95638" x2="147.19412" y2="39.48659" />
      <line id="728,738" x1="167.19690" y1="32.42339" x2="153.66391" y2="25.95360" />
      <line id="730,736" x1="178.63870" y1="8.49036" x2="165.10571" y2="2.02057" />
      <line id="758,781" x1="105.59995" y1="57.66916" x2="90.78044" y2="55.34918" />
      <line id="759,780" x1="107.91991" y1="42.84964" x2="93.10041" y2="40.52968" />
      <line id="760,779" x1="110.23988" y1="28.03014" x2="95.42038" y2="25.71017" />
      <line id="761,778" x1="112.55985" y1="13.21063" x2="97.74035" y2="10.89066" />
      <line id="762,777" x1="114.87982" y1="-1.60889" x2="100.06032" y2="-3.92883" />
      <line id="763,776" x1="117.19979" y1="-16.42838" x2="102.38028" y2="-18.74835" />
      <line id="764,775" x1="119.51975" y1="-31.24789" x2="104.70025" y2="-33.56784" />
      <line id="765,774" x1="121.83972" y1="-46.06738" x2="107.02022" y2="-48.38736" />
      <line id="766,773" x1="124.15969" y1="-60.88690" x2="109.34019" y2="-63.20685" />
      <line id="767,772" x1="126.47966" y1="-75.70639" x2="111.66015" y2="-78.02637" />
    </g>
    <g style="font-family: SansSerif" transform="translate(-4.6, 4)" id="seq">
      <text x="49.879" y="-57.714">N</text>
      <text x="45.666" y="-72.110">N</text>
      <text x="41.453" y="-86.506">N</text>
      <text x="37.240" y="-100.903">N</text>
      <text x="33.027" y="-115.299">N</text>
      <text x="33.469" y="-130.292">N</text>
      <text x="19.346" y="-135.346">N</text>
      <text x="10.175" y="-123.476">N</text>
      <text x="18.631" y="-111.086">N</text>
      <text x="22.844" y="-96.690">N</text>
      <text x="27.057" y="-82.293">N</text>
      <text x="31.269" y="-67.897">N</text>
      <text x="35.482" y="-53.501">N</text>
      <text x="39.695" y="-39.105">N</text>
      <text x="43.908" y="-24.709">N</text>
      <text x="48.121" y="-10.312">N</text>
      <text x="52.334" y="4.084">N</text>
      <text x="56.547" y="18.480">N</text>
      <text x="60.760" y="32.876">N</text>
      <text x="64.973" y="47.272">N</text>
      <text x="69.186" y="61.669">N</text>
      <text x="61.988" y="63.775">N</text>
      <text x="52.045" y="52.544">N</text>
      <text x="64.824" y="60.398">N</text>
      <text x="78.004" y="67.560">N</text>
      <text x="91.547" y="74.009">N</text>
      <text x="105.414" y="79.729">N</text>
      <text x="119.565" y="84.702">N</text>
      <text x="133.962" y="88.914">N</text>
      <text x="148.562" y="92.353">N</text>
      <text x="163.325" y="95.010">N</text>
      <text x="178.208" y="96.878">N</text>
      <text x="193.170" y="97.950">N</text>
      <text x="208.167" y="98.223">N</text>
      <text x="223.158" y="97.698">N</text>
      <text x="238.100" y="96.375">N</text>
      <text x="252.950" y="94.259">N</text>
      <text x="267.666" y="91.354">N</text>
      <text x="282.206" y="87.670">N</text>
      <text x="296.530" y="83.217">N</text>
      <text x="310.596" y="78.007">N</text>
      <text x="324.365" y="72.056">N</text>
      <text x="337.798" y="65.380">N</text>
      <text x="350.855" y="57.998">N</text>
      <text x="363.502" y="49.931">N</text>
      <text x="375.700" y="41.202">N</text>
      <text x="387.417" y="31.836">N</text>
      <text x="398.618" y="21.860">N</text>
      <text x="409.272" y="11.301">N</text>
      <text x="419.349" y="0.189">N</text>
      <text x="428.819" y="-11.443">N</text>
      <text x="437.657" y="-23.563">N</text>
      <text x="445.837" y="-36.136">N</text>
      <text x="453.335" y="-49.128">N</text>
      <text x="460.131" y="-62.500">N</text>
      <text x="466.205" y="-76.215">N</text>
      <text x="471.541" y="-90.234">N</text>
      <text x="476.122" y="-104.517">N</text>
      <text x="479.936" y="-119.024">N</text>
      <text x="482.972" y="-133.714">N</text>
      <text x="485.222" y="-148.544">N</text>
      <text x="486.678" y="-163.473">N</text>
      <text x="487.338" y="-178.459">N</text>
      <text x="487.198" y="-193.458">N</text>
      <text x="486.260" y="-208.429">N</text>
      <text x="484.526" y="-223.328">N</text>
      <text x="482.002" y="-238.114">N</text>
      <text x="478.693" y="-252.745">N</text>
      <text x="474.610" y="-267.178">N</text>
      <text x="469.764" y="-281.374">N</text>
      <text x="464.169" y="-295.291">N</text>
      <text x="457.841" y="-308.891">N</text>
      <text x="450.797" y="-322.135">N</text>
      <text x="443.058" y="-334.984">N</text>
      <text x="434.646" y="-347.403">N</text>
      <text x="425.585" y="-359.357">N</text>
      <text x="415.900" y="-370.811">N</text>
      <text x="405.618" y="-381.733">N</text>
      <text x="394.770" y="-392.092">N</text>
      <text x="383.385" y="-401.859">N</text>
      <text x="371.497" y="-411.006">N</text>
      <text x="359.138" y="-419.506">N</text>
      <text x="346.344" y="-427.337">N</text>
      <text x="333.151" y="-434.474">N</text>
      <text x="319.597" y="-440.900">N</text>
      <text x="305.720" y="-446.594">N</text>
      <text x="291.559" y="-451.541">N</text>
      <text x="277.155" y="-455.727">N</text>
      <text x="262.548" y="-459.140">N</text>
      <text x="247.781" y="-461.771">N</text>
      <text x="232.894" y="-463.611">N</text>
      <text x="217.930" y="-464.656">N</text>
      <text x="202.932" y="-464.902">N</text>
      <text x="187.943" y="-464.350">N</text>
      <text x="173.003" y="-463.000">N</text>
      <text x="158.157" y="-460.856">N</text>
      <text x="143.447" y="-457.925">N</text>
      <text x="128.913" y="-454.215">N</text>
      <text x="114.597" y="-449.736">N</text>
      <text x="100.540" y="-444.501">N</text>
      <text x="86.782" y="-438.524">N</text>
      <text x="73.362" y="-431.824">N</text>
      <text x="60.317" y="-424.418">N</text>
      <text x="47.686" y="-416.329">N</text>
      <text x="35.503" y="-407.578">N</text>
      <text x="23.803" y="-398.191">N</text>
      <text x="12.620" y="-388.194">N</text>
      <text x="1.986" y="-377.615">N</text>
      <text x="-8.071" y="-366.486">N</text>
      <text x="-17.520" y="-354.836">N</text>
      <text x="-26.336" y="-342.700">N</text>
      <text x="-34.493" y="-330.112">N</text>
      <text x="-41.968" y="-317.107">N</text>
      <text x="-48.740" y="-303.723">N</text>
      <text x="-54.789" y="-289.997">N</text>
      <text x="-60.099" y="-275.968">N</text>
      <text x="-64.654" y="-261.676">N</text>
      <text x="-68.442" y="-247.163">N</text>
      <text x="-71.452" y="-232.468">N</text>
      <text x="-73.674" y="-217.633">N</text>
      <text x="-75.104" y="-202.701">N</text>
      <text x="-75.736" y="-187.715">N</text>
      <text x="-75.570" y="-172.716">N</text>
      <text x="-74.604" y="-157.747">N</text>
      <text x="-72.844" y="-142.850">N</text>
      <text x="-70.292" y="-128.069">N</text>
      <text x="-66.957" y="-113.445">N</text>
      <text x="-62.847" y="-99.018">N</text>
      <text x="-57.976" y="-84.832">N</text>
      <text x="-52.355" y="-70.924">N</text>
      <text x="-46.003" y="-57.336">N</text>
      <text x="-38.935" y="-44.105">N</text>
      <text x="-31.173" y="-31.270">N</text>
      <text x="-22.739" y="-18.866">N</text>
      <text x="-13.656" y="-6.929">N</text>
      <text x="-3.950" y="4.508">N</text>
      <text x="6.352" y="15.411">A</text>
      <text x="17.219" y="25.751">A</text>
      <text x="28.630" y="35.504">U</text>
      <text x="14.886" y="29.496">U</text>
      <text x="1.141" y="23.488">U</text>
      <text x="-12.603" y="17.480">A</text>
      <text x="-26.347" y="11.471">A</text>
      <text x="-35.635" y="-2.044">G</text>
      <text x="-51.960" y="-0.489">A</text>
      <text x="-58.529" y="14.537">A</text>
      <text x="-48.583" y="27.577">A</text>
      <text x="-32.355" y="25.216">U</text>
      <text x="-18.611" y="31.224">U</text>
      <text x="-4.867" y="37.232">A</text>
      <text x="8.877" y="43.240">A</text>
      <text x="22.622" y="49.248">G</text>
      <text x="8.325" y="53.788">A</text>
      <text x="0.764" y="66.743">U</text>
      <text x="3.842" y="81.424">U</text>
      <text x="15.970" y="90.251">U</text>
      <text x="30.886" y="88.667">A</text>
      <text x="40.889" y="77.490">G</text>
      <text x="40.814" y="62.488">U</text>
      <text x="50.757" y="73.719">A</text>
      <text x="41.440" y="80.108">A</text>
      <text x="32.902" y="87.339">U</text>
      <text x="25.217" y="95.318">A</text>
      <text x="18.449" y="103.948">C</text>
      <text x="12.649" y="113.127">A</text>
      <text x="7.860" y="122.749">A</text>
      <text x="4.110" y="132.704">A</text>
      <text x="1.418" y="142.881">A</text>
      <text x="-0.211" y="153.171">A</text>
      <text x="-0.780" y="163.462">U</text>
      <text x="-15.769" y="162.895">U</text>
      <text x="-30.759" y="162.328">A</text>
      <text x="-45.748" y="161.761">A</text>
      <text x="-60.737" y="161.193">A</text>
      <text x="-75.705" y="160.208">A</text>
      <text x="-90.639" y="158.807">A</text>
      <text x="-105.574" y="157.405">C</text>
      <text x="-109.381" y="142.733">U</text>
      <text x="-117.979" y="130.249">A</text>
      <text x="-130.330" y="121.461">A</text>
      <text x="-144.943" y="117.431">U</text>
      <text x="-160.052" y="118.644">U</text>
      <text x="-173.834" y="124.955">U</text>
      <text x="-184.625" y="135.602">U</text>
      <text x="-191.120" y="149.298">G</text>
      <text x="-192.536" y="164.390">U</text>
      <text x="-188.703" y="179.055">G</text>
      <text x="-180.081" y="191.523">C</text>
      <text x="-167.714" y="200.288">C</text>
      <text x="-153.094" y="204.292">A</text>
      <text x="-137.987" y="203.051">G</text>
      <text x="-124.216" y="196.714">C</text>
      <text x="-113.445" y="186.048">A</text>
      <text x="-106.975" y="172.340">G</text>
      <text x="-92.041" y="173.741">U</text>
      <text x="-77.106" y="175.143">U</text>
      <text x="-91.264" y="180.098">G</text>
      <text x="-102.462" y="190.079">C</text>
      <text x="-109.006" y="203.576">G</text>
      <text x="-109.908" y="218.549">G</text>
      <text x="-105.032" y="232.734">U</text>
      <text x="-95.113" y="243.986">U</text>
      <text x="-81.652" y="250.605">A</text>
      <text x="-66.685" y="251.590">U</text>
      <text x="-52.473" y="246.792">A</text>
      <text x="-41.166" y="236.936">C</text>
      <text x="-34.472" y="223.512">A</text>
      <text x="-33.405" y="208.550">A</text>
      <text x="-38.124" y="194.312">A</text>
      <text x="-47.918" y="182.950">A</text>
      <text x="-61.305" y="176.183">U</text>
      <text x="-46.315" y="176.750">U</text>
      <text x="-31.326" y="177.317">U</text>
      <text x="-16.337" y="177.884">A</text>
      <text x="-1.347" y="178.452">A</text>
      <text x="2.174" y="201.517">A</text>
      <text x="10.873" y="223.167">U</text>
      <text x="-1.745" y="231.279">U</text>
      <text x="-14.362" y="239.391">A</text>
      <text x="-26.979" y="247.502">A</text>
      <text x="-39.597" y="255.614">A</text>
      <text x="-52.214" y="263.726">U</text>
      <text x="-64.831" y="271.838">U</text>
      <text x="-77.449" y="279.950">A</text>
      <text x="-90.066" y="288.062">U</text>
      <text x="-79.625" y="277.292">U</text>
      <text x="-70.211" y="265.614">U</text>
      <text x="-61.902" y="253.126">N</text>
      <text x="-54.769" y="239.930">N</text>
      <text x="-48.870" y="226.139">N</text>
      <text x="-44.256" y="211.866">N</text>
      <text x="-40.964" y="197.232">N</text>
      <text x="-39.022" y="182.358">N</text>
      <text x="-38.447" y="167.369">N</text>
      <text x="-39.242" y="152.390">N</text>
      <text x="-41.402" y="137.547">N</text>
      <text x="-44.908" y="122.962">N</text>
      <text x="-49.732" y="108.759">N</text>
      <text x="-55.832" y="95.055">N</text>
      <text x="-63.158" y="81.966">N</text>
      <text x="-71.649" y="69.601">N</text>
      <text x="-81.234" y="58.062">N</text>
      <text x="-91.832" y="47.447">N</text>
      <text x="-103.355" y="37.844">N</text>
      <text x="-115.707" y="29.333">N</text>
      <text x="-128.784" y="21.986">N</text>
      <text x="-142.478" y="15.864">N</text>
      <text x="-156.673" y="11.017">N</text>
      <text x="-171.252" y="7.487">N</text>
      <text x="-186.092" y="5.303">N</text>
      <text x="-201.070" y="4.484">N</text>
      <text x="-216.060" y="5.035">N</text>
      <text x="-230.937" y="6.953">N</text>
      <text x="-245.576" y="10.222">N</text>
      <text x="-259.856" y="14.813">N</text>
      <text x="-273.657" y="20.689">N</text>
      <text x="-286.864" y="27.801">N</text>
      <text x="-299.366" y="36.090">N</text>
      <text x="-311.059" y="45.485">N</text>
      <text x="-321.846" y="55.909">N</text>
      <text x="-331.635" y="67.274">N</text>
      <text x="-340.346" y="79.486">N</text>
      <text x="-347.905" y="92.442">N</text>
      <text x="-354.250" y="106.034">N</text>
      <text x="-359.327" y="120.148">N</text>
      <text x="-363.093" y="134.668">N</text>
      <text x="-365.519" y="149.470">N</text>
      <text x="-366.582" y="164.433">N</text>
      <text x="-366.275" y="179.429">N</text>
      <text x="-364.600" y="194.336">N</text>
      <text x="-361.570" y="209.026">N</text>
      <text x="-357.212" y="223.379">N</text>
      <text x="-351.561" y="237.274">N</text>
      <text x="-344.665" y="250.595">N</text>
      <text x="-336.581" y="263.231">N</text>
      <text x="-327.378" y="275.075">N</text>
      <text x="-317.131" y="286.030">N</text>
      <text x="-305.927" y="296.003">N</text>
      <text x="-293.859" y="304.912">N</text>
      <text x="-281.028" y="312.681">N</text>
      <text x="-267.541" y="319.246">N</text>
      <text x="-253.511" y="324.552">N</text>
      <text x="-239.054" y="328.555">N</text>
      <text x="-224.293" y="331.221">N</text>
      <text x="-209.350" y="332.528">N</text>
      <text x="-194.350" y="332.465">N</text>
      <text x="-179.419" y="331.033">N</text>
      <text x="-164.681" y="328.243">N</text>
      <text x="-150.259" y="324.119">N</text>
      <text x="-136.274" y="318.695">U</text>
      <text x="-122.842" y="312.017">U</text>
      <text x="-110.068" y="304.134">A</text>
      <text x="-120.706" y="314.709">U</text>
      <text x="-136.689" y="318.381">U</text>
      <text x="-141.241" y="334.136">U</text>
      <text x="-129.680" y="345.766">A</text>
      <text x="-113.899" y="341.308">A</text>
      <text x="-110.131" y="325.348">A</text>
      <text x="-99.493" y="314.773">U</text>
      <text x="-105.126" y="328.675">U</text>
      <text x="-104.824" y="343.672">U</text>
      <text x="-98.638" y="357.337">U</text>
      <text x="-87.568" y="367.459">U</text>
      <text x="-73.405" y="372.400">A</text>
      <text x="-58.441" y="371.361">U</text>
      <text x="-45.098" y="364.509">U</text>
      <text x="-35.533" y="352.954">U</text>
      <text x="-31.295" y="338.565">A</text>
      <text x="-33.070" y="323.671">A</text>
      <text x="-40.570" y="310.680">U</text>
      <text x="-52.582" y="301.696">U</text>
      <text x="-67.162" y="298.172">U</text>
      <text x="-81.954" y="300.679">A</text>
      <text x="-69.337" y="292.567">U</text>
      <text x="-56.719" y="284.455">G</text>
      <text x="-44.102" y="276.344">A</text>
      <text x="-31.485" y="268.232">U</text>
      <text x="-18.867" y="260.120">U</text>
      <text x="-6.250" y="252.008">U</text>
      <text x="6.367" y="243.896">A</text>
      <text x="18.985" y="235.784">A</text>
      <text x="24.156" y="243.382">U</text>
      <text x="30.043" y="250.539">A</text>
      <text x="36.607" y="257.188">A</text>
      <text x="43.804" y="263.264">A</text>
      <text x="51.584" y="268.709">U</text>
      <text x="45.823" y="282.558">U</text>
      <text x="40.062" y="296.408">U</text>
      <text x="34.301" y="310.257">U</text>
      <text x="26.387" y="311.909">A</text>
      <text x="19.807" y="316.442">U</text>
      <text x="15.544" y="323.091">U</text>
      <text x="14.204" y="330.781">A</text>
      <text x="15.925" y="338.298">U</text>
      <text x="20.368" y="344.488">A</text>
      <text x="5.475" y="348.428">A</text>
      <text x="-4.130" y="360.243">A</text>
      <text x="-4.927" y="375.270">C</text>
      <text x="3.181" y="387.736">U</text>
      <text x="-2.358" y="401.676">A</text>
      <text x="-7.898" y="415.615">G</text>
      <text x="-13.438" y="429.555">G</text>
      <text x="-28.598" y="432.412">A</text>
      <text x="-39.792" y="443.028">U</text>
      <text x="-43.446" y="458.017">U</text>
      <text x="-38.396" y="472.594">A</text>
      <text x="-26.252" y="482.109">G</text>
      <text x="-10.890" y="483.525">A</text>
      <text x="2.789" y="476.391">U</text>
      <text x="10.419" y="462.982">A</text>
      <text x="9.566" y="447.579">C</text>
      <text x="0.502" y="435.095">C</text>
      <text x="6.042" y="421.155">C</text>
      <text x="11.581" y="407.215">U</text>
      <text x="17.121" y="393.276">A</text>
      <text x="31.574" y="389.775">U</text>
      <text x="41.309" y="378.300">U</text>
      <text x="42.434" y="363.115">A</text>
      <text x="34.308" y="350.028">U</text>
      <text x="52.390" y="338.075">U</text>
      <text x="48.151" y="316.018">A</text>
      <text x="53.912" y="302.169">A</text>
      <text x="59.673" y="288.319">A</text>
      <text x="65.434" y="274.470">A</text>
      <text x="72.797" y="275.894">U</text>
      <text x="69.948" y="290.621">U</text>
      <text x="67.098" y="305.348">U</text>
      <text x="64.249" y="320.075">A</text>
      <text x="61.399" y="334.802">A</text>
      <text x="58.550" y="349.529">U</text>
      <text x="55.701" y="364.255">U</text>
      <text x="52.851" y="378.982">A</text>
      <text x="57.747" y="393.161">A</text>
      <text x="67.578" y="381.832">A</text>
      <text x="70.427" y="367.105">A</text>
      <text x="73.277" y="352.378">A</text>
      <text x="76.126" y="337.651">A</text>
      <text x="78.976" y="322.924">A</text>
      <text x="81.825" y="308.197">A</text>
      <text x="84.675" y="293.471">U</text>
      <text x="87.524" y="278.744">A</text>
      <text x="94.887" y="280.168">A</text>
      <text x="95.067" y="295.167">A</text>
      <text x="87.495" y="309.059">A</text>
      <text x="95.383" y="321.693">U</text>
      <text x="83.052" y="328.158">A</text>
      <text x="74.729" y="339.236">G</text>
      <text x="71.978" y="352.751">U</text>
      <text x="75.278" y="366.073">A</text>
      <text x="83.935" y="376.639">A</text>
      <text x="96.228" y="382.440">A</text>
      <text x="96.467" y="397.438">U</text>
      <text x="96.706" y="412.436">A</text>
      <text x="96.945" y="427.434">A</text>
      <text x="88.504" y="441.494">U</text>
      <text x="96.696" y="455.701">A</text>
      <text x="113.093" y="455.440">A</text>
      <text x="120.827" y="440.979">U</text>
      <text x="111.943" y="427.195">U</text>
      <text x="111.704" y="412.197">U</text>
      <text x="111.465" y="397.199">A</text>
      <text x="111.226" y="382.201">U</text>
      <text x="125.326" y="374.197">U</text>
      <text x="133.483" y="360.075">G</text>
      <text x="133.370" y="343.674">A</text>
      <text x="124.922" y="329.504">A</text>
      <text x="110.382" y="321.514">A</text>
      <text x="117.967" y="308.695">C</text>
      <text x="110.066" y="294.988">U</text>
      <text x="109.886" y="279.989">U</text>
      <text x="123.520" y="277.317">A</text>
      <text x="136.624" y="272.894">A</text>
      <text x="148.977" y="266.813">A</text>
      <text x="160.370" y="259.195">U</text>
      <text x="170.616" y="250.184">A</text>
      <text x="179.546" y="239.952">A</text>
      <text x="187.017" y="228.685">C</text>
      <text x="192.915" y="216.589">A</text>
      <text x="197.149" y="203.881">U</text>
      <text x="211.798" y="207.111">G</text>
      <text x="226.439" y="210.369">G</text>
      <text x="241.075" y="213.657">C</text>
      <text x="248.652" y="218.536">G</text>
      <text x="255.775" y="216.929">G</text>
      <text x="270.423" y="220.158">U</text>
      <text x="285.071" y="223.388">A</text>
      <text x="299.719" y="226.618">U</text>
      <text x="314.367" y="229.847">U</text>
      <text x="329.016" y="233.077">U</text>
      <text x="343.664" y="236.306">U</text>
      <text x="358.312" y="239.536">A</text>
      <text x="360.856" y="261.005">G</text>
      <text x="371.401" y="279.846">U</text>
      <text x="388.325" y="293.207">U</text>
      <text x="409.043" y="299.076">C</text>
      <text x="430.404" y="296.582">A</text>
      <text x="449.164" y="286.126">U</text>
      <text x="462.485" y="269.314">U</text>
      <text x="476.624" y="274.323">U</text>
      <text x="490.763" y="279.331">A</text>
      <text x="504.902" y="284.340">G</text>
      <text x="519.041" y="289.348">A</text>
      <text x="503.847" y="312.011">G</text>
      <text x="511.440" y="347.142">G</text>
      <text x="547.786" y="375.398">A</text>
      <text x="560.594" y="383.206">A</text>
      <text x="573.401" y="391.014">U</text>
      <text x="586.209" y="398.822">C</text>
      <text x="599.017" y="406.630">U</text>
      <text x="611.824" y="414.439">G</text>
      <text x="624.632" y="422.247">U</text>
      <text x="637.439" y="430.055">C</text>
      <text x="650.231" y="437.889">U</text>
      <text x="663.007" y="445.748">A</text>
      <text x="659.719" y="455.821">A</text>
      <text x="660.513" y="467.260">U</text>
      <text x="665.899" y="478.364">A</text>
      <text x="675.669" y="487.264">A</text>
      <text x="688.859" y="492.232">U</text>
      <text x="696.895" y="504.897">U</text>
      <text x="704.932" y="517.563">G</text>
      <text x="699.093" y="531.940">A</text>
      <text x="702.853" y="546.995">U</text>
      <text x="714.765" y="556.938">A</text>
      <text x="730.250" y="557.947">A</text>
      <text x="743.352" y="549.634">U</text>
      <text x="749.034" y="535.195">C</text>
      <text x="745.111" y="520.182">C</text>
      <text x="733.091" y="510.368">A</text>
      <text x="717.597" y="509.527">C</text>
      <text x="709.561" y="496.861">G</text>
      <text x="701.524" y="484.195">A</text>
      <text x="706.518" y="478.600">A</text>
      <text x="717.709" y="488.588">U</text>
      <text x="728.900" y="498.576">A</text>
      <text x="740.091" y="508.564">A</text>
      <text x="754.777" y="511.618">A</text>
      <text x="750.079" y="497.373">U</text>
      <text x="738.888" y="487.385">U</text>
      <text x="727.697" y="477.397">U</text>
      <text x="716.506" y="467.409">A</text>
      <text x="721.500" y="461.813">C</text>
      <text x="734.994" y="468.364">U</text>
      <text x="748.489" y="474.914">U</text>
      <text x="761.983" y="481.465">A</text>
      <text x="775.477" y="488.015">U</text>
      <text x="788.971" y="494.566">U</text>
      <text x="802.465" y="501.116">U</text>
      <text x="802.730" y="515.037">U</text>
      <text x="808.913" y="527.438">A</text>
      <text x="819.769" y="535.944">A</text>
      <text x="833.160" y="538.953">A</text>
      <text x="846.483" y="535.939">A</text>
      <text x="857.171" y="527.540">U</text>
      <text x="870.691" y="534.037">U</text>
      <text x="876.976" y="540.496">U</text>
      <text x="884.277" y="540.532">U</text>
      <text x="897.823" y="546.975">G</text>
      <text x="901.765" y="552.043">U</text>
      <text x="906.890" y="554.133">A</text>
      <text x="911.503" y="553.415">U</text>
      <text x="925.100" y="559.750">A</text>
      <text x="938.696" y="566.084">U</text>
      <text x="952.293" y="572.419">C</text>
      <text x="965.852" y="578.835">G</text>
      <text x="979.372" y="585.332">U</text>
      <text x="992.892" y="591.828">U</text>
      <text x="1006.399" y="598.352">G</text>
      <text x="1019.893" y="604.903">U</text>
      <text x="1033.387" y="611.453">U</text>
      <text x="1031.179" y="626.534">A</text>
      <text x="1035.989" y="641.976">A</text>
      <text x="1047.631" y="654.509">A</text>
      <text x="1064.407" y="661.141">A</text>
      <text x="1083.336" y="659.840">A</text>
      <text x="1096.356" y="667.288">A</text>
      <text x="1093.569" y="677.178">U</text>
      <text x="1095.110" y="688.358">A</text>
      <text x="1101.486" y="698.879">U</text>
      <text x="1112.318" y="706.633">U</text>
      <text x="1126.321" y="709.749">U</text>
      <text x="1139.281" y="717.301">U</text>
      <text x="1152.242" y="724.853">U</text>
      <text x="1159.911" y="739.348">A</text>
      <text x="1176.306" y="739.684">G</text>
      <text x="1184.562" y="725.515">U</text>
      <text x="1176.186" y="711.416">A</text>
      <text x="1159.794" y="711.892">A</text>
      <text x="1146.833" y="704.340">A</text>
      <text x="1133.873" y="696.789">A</text>
      <text x="1137.453" y="690.199">U</text>
      <text x="1148.195" y="670.429">A</text>
      <text x="1172.639" y="674.376">A</text>
      <text x="1154.960" y="657.041">U</text>
      <text x="1136.981" y="643.383">A</text>
      <text x="1117.148" y="643.561">U</text>
      <text x="1103.804" y="654.268">U</text>
      <text x="1090.784" y="646.820">U</text>
      <text x="1093.911" y="640.002">A</text>
      <text x="1107.545" y="646.256">A</text>
      <text x="1122.479" y="644.854">A</text>
      <text x="1113.798" y="632.622">A</text>
      <text x="1100.164" y="626.368">A</text>
      <text x="1103.291" y="619.551">U</text>
      <text x="1117.430" y="624.559">U</text>
      <text x="1131.569" y="629.568">A</text>
      <text x="1139.744" y="643.372">U</text>
      <text x="1155.653" y="645.444">U</text>
      <text x="1167.091" y="634.194">A</text>
      <text x="1165.285" y="618.253">A</text>
      <text x="1151.619" y="609.849">A</text>
      <text x="1136.577" y="615.429">U</text>
      <text x="1122.438" y="610.420">A</text>
      <text x="1108.299" y="605.412">A</text>
      <text x="1099.433" y="592.568">A</text>
      <text x="1087.103" y="584.080">U</text>
      <text x="1073.177" y="580.691">U</text>
      <text x="1059.590" y="582.410">A</text>
      <text x="1048.073" y="588.568">A</text>
      <text x="1039.938" y="597.959">U</text>
      <text x="1026.443" y="591.408">U</text>
      <text x="1012.949" y="584.858">C</text>
      <text x="1008.359" y="579.180">A</text>
      <text x="999.388" y="578.308">G</text>
      <text x="985.868" y="571.812">A</text>
      <text x="972.348" y="565.315">U</text>
      <text x="970.846" y="562.248">C</text>
      <text x="967.845" y="559.718">A</text>
      <text x="963.596" y="558.396">A</text>
      <text x="958.628" y="558.822">G</text>
      <text x="945.031" y="552.488">A</text>
      <text x="931.434" y="546.153">U</text>
      <text x="917.838" y="539.818">G</text>
      <text x="904.266" y="533.429">C</text>
      <text x="890.720" y="526.986">A</text>
      <text x="877.187" y="520.517">G</text>
      <text x="863.667" y="514.020">A</text>
      <text x="862.817" y="497.829">A</text>
      <text x="853.838" y="484.216">U</text>
      <text x="839.118" y="476.979">A</text>
      <text x="822.667" y="478.194">U</text>
      <text x="809.016" y="487.622">A</text>
      <text x="795.521" y="481.072">A</text>
      <text x="782.027" y="474.521">A</text>
      <text x="768.533" y="467.971">U</text>
      <text x="755.039" y="461.420">A</text>
      <text x="741.545" y="454.870">A</text>
      <text x="728.051" y="448.319">G</text>
      <text x="712.320" y="426.563">A</text>
      <text x="688.813" y="421.859">A</text>
      <text x="670.866" y="432.971">U</text>
      <text x="658.090" y="425.112">A</text>
      <text x="654.087" y="419.006">U</text>
      <text x="645.247" y="417.247">G</text>
      <text x="632.440" y="409.439">A</text>
      <text x="619.632" y="401.631">U</text>
      <text x="606.825" y="393.823">G</text>
      <text x="594.017" y="386.015">G</text>
      <text x="581.210" y="378.207">A</text>
      <text x="568.402" y="370.398">U</text>
      <text x="555.595" y="362.590">U</text>
      <text x="557.049" y="355.232">A</text>
      <text x="570.145" y="362.545">C</text>
      <text x="581.147" y="352.350">A</text>
      <text x="574.850" y="338.735">A</text>
      <text x="559.957" y="340.517">U</text>
      <text x="561.411" y="333.159">A</text>
      <text x="576.226" y="330.810">A</text>
      <text x="591.040" y="328.460">A</text>
      <text x="605.855" y="326.111">U</text>
      <text x="625.218" y="325.258">U</text>
      <text x="622.182" y="306.116">U</text>
      <text x="603.506" y="311.296">A</text>
      <text x="588.691" y="313.646">U</text>
      <text x="573.876" y="315.995">U</text>
      <text x="559.061" y="318.344">U</text>
      <text x="557.200" y="311.079">A</text>
      <text x="571.730" y="307.356">A</text>
      <text x="586.261" y="303.632">A</text>
      <text x="600.791" y="299.909">U</text>
      <text x="597.067" y="285.378">G</text>
      <text x="582.537" y="289.102">G</text>
      <text x="568.007" y="292.825">A</text>
      <text x="553.476" y="296.549">U</text>
      <text x="551.615" y="289.283">A</text>
      <text x="565.734" y="284.219">U</text>
      <text x="579.853" y="279.154">A</text>
      <text x="593.972" y="274.089">A</text>
      <text x="608.091" y="269.024">U</text>
      <text x="622.210" y="263.960">A</text>
      <text x="636.329" y="258.895">U</text>
      <text x="649.743" y="266.932">U</text>
      <text x="665.177" y="264.416">U</text>
      <text x="675.343" y="252.534">G</text>
      <text x="675.441" y="236.896">U</text>
      <text x="665.426" y="224.887">A</text>
      <text x="650.025" y="222.177">A</text>
      <text x="636.511" y="230.045">U</text>
      <text x="631.264" y="244.776">A</text>
      <text x="617.145" y="249.841">U</text>
      <text x="603.026" y="254.905">A</text>
      <text x="588.907" y="259.970">U</text>
      <text x="574.788" y="265.035">U</text>
      <text x="560.669" y="270.100">A</text>
      <text x="546.550" y="275.164">U</text>
      <text x="558.630" y="266.272">U</text>
      <text x="564.944" y="252.666">G</text>
      <text x="563.934" y="237.700">A</text>
      <text x="555.850" y="225.065">A</text>
      <text x="542.685" y="217.876">G</text>
      <text x="527.685" y="217.906">G</text>
      <text x="514.549" y="225.148">U</text>
      <text x="506.516" y="237.816">G</text>
      <text x="505.566" y="252.785">G</text>
      <text x="511.935" y="266.366">A</text>
      <text x="524.050" y="275.209">U</text>
      <text x="509.911" y="270.201">U</text>
      <text x="495.772" y="265.192">U</text>
      <text x="481.632" y="260.184">A</text>
      <text x="467.493" y="255.175">A</text>
      <text x="468.454" y="248.449">A</text>
      <text x="468.577" y="241.655">U</text>
      <text x="467.862" y="234.899">G</text>
      <text x="466.320" y="228.281">U</text>
      <text x="463.973" y="221.905">A</text>
      <text x="460.858" y="215.867">A</text>
      <text x="472.569" y="206.494">U</text>
      <text x="484.281" y="197.122">U</text>
      <text x="495.992" y="187.750">U</text>
      <text x="507.704" y="178.377">U</text>
      <text x="519.415" y="169.005">A</text>
      <text x="533.692" y="174.666">U</text>
      <text x="548.885" y="172.415">U</text>
      <text x="560.907" y="162.856">U</text>
      <text x="566.524" y="148.561">A</text>
      <text x="564.225" y="133.375">G</text>
      <text x="554.628" y="121.383">U</text>
      <text x="540.315" y="115.811">U</text>
      <text x="525.137" y="118.158">U</text>
      <text x="513.175" y="127.792">U</text>
      <text x="507.648" y="142.122">U</text>
      <text x="510.043" y="157.293">U</text>
      <text x="498.331" y="166.666">A</text>
      <text x="486.620" y="176.038">A</text>
      <text x="474.908" y="185.411">A</text>
      <text x="463.197" y="194.783">A</text>
      <text x="451.485" y="204.155">U</text>
      <text x="443.767" y="197.992">G</text>
      <text x="435.064" y="193.304">A</text>
      <text x="425.656" y="190.244">U</text>
      <text x="415.843" y="188.916">U</text>
      <text x="405.943" y="189.363">A</text>
      <text x="396.274" y="191.575">A</text>
      <text x="387.149" y="195.484">A</text>
      <text x="378.863" y="200.966">A</text>
      <text x="371.685" y="207.846">A</text>
      <text x="365.847" y="215.906">U</text>
      <text x="361.542" y="224.888">U</text>
      <text x="346.893" y="221.658">G</text>
      <text x="332.245" y="218.429">A</text>
      <text x="317.597" y="215.199">A</text>
      <text x="302.949" y="211.969">A</text>
      <text x="288.301" y="208.740">U</text>
      <text x="273.652" y="205.510">A</text>
      <text x="259.004" y="202.281">U</text>
      <text x="244.362" y="199.022">G</text>
      <text x="229.727" y="195.734">U</text>
      <text x="223.959" y="191.258">A</text>
      <text x="215.027" y="192.462">C</text>
      <text x="200.379" y="189.233">A</text>
      <text x="201.976" y="180.703">U</text>
      <text x="202.844" y="172.006">A</text>
      <text x="202.967" y="163.205">U</text>
      <text x="202.332" y="154.363">U</text>
      <text x="200.934" y="145.547">G</text>
      <text x="198.774" y="136.822">C</text>
      <text x="195.855" y="128.254">C</text>
      <text x="192.191" y="119.911">C</text>
      <text x="187.797" y="111.856">G</text>
      <text x="182.697" y="104.154">U</text>
      <text x="176.919" y="96.867">C</text>
      <text x="170.498" y="90.056">A</text>
      <text x="163.472" y="83.776">C</text>
      <text x="155.885" y="78.081">U</text>
      <text x="147.788" y="73.022">U</text>
      <text x="154.257" y="59.489">U</text>
      <text x="160.727" y="45.956">C</text>
      <text x="167.197" y="32.423">A</text>
      <text x="180.130" y="23.310">U</text>
      <text x="178.639" y="8.490">U</text>
      <text x="193.227" y="1.814">U</text>
      <text x="196.963" y="-13.788">A</text>
      <text x="186.981" y="-26.347">A</text>
      <text x="170.938" y="-26.229">A</text>
      <text x="161.141" y="-13.525">A</text>
      <text x="165.106" y="2.021">A</text>
      <text x="152.636" y="10.166">U</text>
      <text x="153.664" y="25.954">U</text>
      <text x="147.194" y="39.487">G</text>
      <text x="140.724" y="53.020">A</text>
      <text x="134.255" y="66.553">A</text>
      <text x="127.091" y="64.332">A</text>
      <text x="131.533" y="50.004">U</text>
      <text x="135.974" y="35.677">A</text>
      <text x="140.416" y="21.350">A</text>
      <text x="144.858" y="7.023">G</text>
      <text x="149.299" y="-7.305">U</text>
      <text x="153.741" y="-21.632">C</text>
      <text x="158.183" y="-35.959">G</text>
      <text x="143.855" y="-40.401">U</text>
      <text x="139.414" y="-26.074">A</text>
      <text x="134.972" y="-11.746">A</text>
      <text x="130.530" y="2.581">C</text>
      <text x="126.089" y="16.908">A</text>
      <text x="121.647" y="31.235">A</text>
      <text x="117.205" y="45.563">A</text>
      <text x="112.764" y="59.890">G</text>
      <text x="105.600" y="57.669">U</text>
      <text x="107.920" y="42.850">A</text>
      <text x="110.240" y="28.030">G</text>
      <text x="112.560" y="13.211">A</text>
      <text x="114.880" y="-1.609">G</text>
      <text x="117.200" y="-16.428">G</text>
      <text x="119.520" y="-31.248">U</text>
      <text x="121.840" y="-46.067">A</text>
      <text x="124.160" y="-60.887">C</text>
      <text x="126.480" y="-75.706">U</text>
      <text x="137.193" y="-88.123">G</text>
      <text x="131.542" y="-103.517">G</text>
      <text x="115.340" y="-106.054">A</text>
      <text x="105.254" y="-93.123">A</text>
      <text x="111.660" y="-78.026">A</text>
      <text x="109.340" y="-63.207">G</text>
      <text x="107.020" y="-48.387">U</text>
      <text x="104.700" y="-33.568">G</text>
      <text x="102.380" y="-18.748">U</text>
      <text x="100.060" y="-3.929">U</text>
      <text x="97.740" y="10.891">U</text>
      <text x="95.420" y="25.710">C</text>
      <text x="93.100" y="40.530">U</text>
      <text x="90.780" y="55.349">A</text>
      <text x="83.582" y="57.456">G</text>
      <text x="79.369" y="43.059">A</text>
      <text x="75.156" y="28.663">A</text>
      <text x="70.943" y="14.267">U</text>
      <text x="66.730" y="-0.129">G</text>
      <text x="62.518" y="-14.525">A</text>
      <text x="58.305" y="-28.922">A</text>
    </g>
  </g>
</svg>
