<?xml version="1.0" encoding="UTF-8" standalone="yes"?>
<svg xmlns="http://www.w3.org/2000/svg" height="452" width="452">
<script type="text/ecmascript">
      <![CDATA[
        var shown = 1;
        function click() {
             var seq = document.getElementById("seq");
             if (shown==1) {
               seq.setAttribute("style", "visibility: hidden");
               shown = 0;
             } else {
               seq.setAttribute("style", "visibility: visible");
               shown = 1;
             }
         }
        ]]>
</script>
  <rect style="stroke: white; fill: white" height="452" x="0" y="0" width="452" onclick="click(evt)" />
  <g transform="scale(1.610007,1.610007) translate(27.739365,33.371315)">
    <polyline style="stroke: black; fill: none; stroke-width: 1.5" id="outline" points="
      111.395,-7.428
      110.702,7.556
      110.010,22.540
      109.317,37.524
      108.624,52.508
      100.307,64.864
      107.399,79.007
      90.907,81.255
      78.048,90.441
      71.337,103.813
      56.401,102.429
      41.465,101.045
      32.711,88.088
      17.662,83.838
      3.424,90.304
      -3.281,104.431
      0.713,119.550
      13.521,128.521
      29.095,127.110
      40.081,115.981
      55.017,117.365
      69.953,118.749
      75.725,132.333
      87.211,141.602
      84.454,156.347
      81.698,171.091
      78.942,185.836
      64.614,191.554
      55.670,204.125
      54.965,219.536
      62.724,232.870
      76.471,239.873
      91.818,238.309
      103.870,228.678
      108.780,214.053
      104.982,199.100
      93.687,188.592
      96.443,173.847
      99.199,159.103
      101.955,144.358
      112.740,142.798
      122.636,137.405
      130.283,128.624
      134.533,117.384
      134.616,104.994
      149.552,103.610
      164.488,102.226
      179.424,100.842
      194.360,99.458
      207.571,108.560
      222.882,103.768
      228.547,88.758
      220.220,75.045
      204.290,73.148
      192.976,84.522
      178.040,85.906
      163.104,87.290
      148.168,88.674
      133.232,90.058
      122.383,79.700
      130.749,66.271
      123.608,53.200
      124.301,38.216
      124.994,23.232
      125.686,8.248
      126.379,-6.736
      129.457,-25.871
    " />
    <g style="stroke: black; stroke-width: 1; fill: none;" id="pairs">
      <line id="1,66" x1="111.39505" y1="-7.42831" x2="126.37904" y2="-6.73557" />
      <line id="2,65" x1="110.70230" y1="7.55568" x2="125.68629" y2="8.24843" />
      <line id="3,64" x1="110.00954" y1="22.53967" x2="124.99354" y2="23.23242" />
      <line id="4,63" x1="109.31680" y1="37.52367" x2="124.30079" y2="38.21642" />
      <line id="5,62" x1="108.62405" y1="52.50766" x2="123.60804" y2="53.20041" />
      <line id="7,60" x1="107.39891" y1="79.00679" x2="122.38291" y2="79.69955" />
      <line id="10,22" x1="71.33728" y1="103.81342" x2="69.95325" y2="118.74943" />
      <line id="11,21" x1="56.40126" y1="102.42939" x2="55.01724" y2="117.36540" />
      <line id="12,20" x1="41.46525" y1="101.04536" x2="40.08123" y2="115.98138" />
      <line id="24,40" x1="87.21068" y1="141.60196" x2="101.95527" y2="144.35818" />
      <line id="25,39" x1="84.45443" y1="156.34656" x2="99.19903" y2="159.10278" />
      <line id="26,38" x1="81.69819" y1="171.09114" x2="96.44279" y2="173.84738" />
      <line id="27,37" x1="78.94195" y1="185.83574" x2="93.68655" y2="188.59198" />
      <line id="45,59" x1="134.61569" y1="104.99435" x2="133.23167" y2="90.05833" />
      <line id="46,58" x1="149.55171" y1="103.61032" x2="148.16768" y2="88.67431" />
      <line id="47,57" x1="164.48772" y1="102.22630" x2="163.10370" y2="87.29028" />
      <line id="48,56" x1="179.42374" y1="100.84227" x2="178.03970" y2="85.90625" />
      <line id="49,55" x1="194.35974" y1="99.45824" x2="192.97572" y2="84.52223" />
    </g>
    <g style="font-family: SansSerif" transform="translate(-4.6, 4)" id="seq">
      <text x="111.395" y="-7.428">U</text>
      <text x="110.702" y="7.556">C</text>
      <text x="110.010" y="22.540">U</text>
      <text x="109.317" y="37.524">A</text>
      <text x="108.624" y="52.508">A</text>
      <text x="100.307" y="64.864">U</text>
      <text x="107.399" y="79.007">A</text>
      <text x="90.907" y="81.255">U</text>
      <text x="78.048" y="90.441">G</text>
      <text x="71.337" y="103.813">G</text>
      <text x="56.401" y="102.429">C</text>
      <text x="41.465" y="101.045">A</text>
      <text x="32.711" y="88.088">G</text>
      <text x="17.662" y="83.838">A</text>
      <text x="3.424" y="90.304">U</text>
      <text x="-3.281" y="104.431">U</text>
      <text x="0.713" y="119.550">A</text>
      <text x="13.521" y="128.521">U</text>
      <text x="29.095" y="127.110">A</text>
      <text x="40.081" y="115.981">U</text>
      <text x="55.017" y="117.365">G</text>
      <text x="69.953" y="118.749">U</text>
      <text x="75.725" y="132.333">A</text>
      <text x="87.211" y="141.602">A</text>
      <text x="84.454" y="156.347">U</text>
      <text x="81.698" y="171.091">G</text>
      <text x="78.942" y="185.836">G</text>
      <text x="64.614" y="191.554">A</text>
      <text x="55.670" y="204.125">U</text>
      <text x="54.965" y="219.536">U</text>
      <text x="62.724" y="232.870">U</text>
      <text x="76.471" y="239.873">A</text>
      <text x="91.818" y="238.309">A</text>
      <text x="103.870" y="228.678">A</text>
      <text x="108.780" y="214.053">C</text>
      <text x="104.982" y="199.100">C</text>
      <text x="93.687" y="188.592">C</text>
      <text x="96.443" y="173.847">C</text>
      <text x="99.199" y="159.103">A</text>
      <text x="101.955" y="144.358">U</text>
      <text x="112.740" y="142.798">U</text>
      <text x="122.636" y="137.405">U</text>
      <text x="130.283" y="128.624">A</text>
      <text x="134.533" y="117.384">U</text>
      <text x="134.616" y="104.994">A</text>
      <text x="149.552" y="103.610">A</text>
      <text x="164.488" y="102.226">A</text>
      <text x="179.424" y="100.842">G</text>
      <text x="194.360" y="99.458">G</text>
      <text x="207.571" y="108.560">A</text>
      <text x="222.882" y="103.768">A</text>
      <text x="228.547" y="88.758">U</text>
      <text x="220.220" y="75.045">A</text>
      <text x="204.290" y="73.148">U</text>
      <text x="192.976" y="84.522">C</text>
      <text x="178.040" y="85.906">C</text>
      <text x="163.104" y="87.290">U</text>
      <text x="148.168" y="88.674">U</text>
      <text x="133.232" y="90.058">U</text>
      <text x="122.383" y="79.700">U</text>
      <text x="130.749" y="66.271">U</text>
      <text x="123.608" y="53.200">U</text>
      <text x="124.301" y="38.216">U</text>
      <text x="124.994" y="23.232">A</text>
      <text x="125.686" y="8.248">G</text>
      <text x="126.379" y="-6.736">A</text>
      <text x="129.457" y="-25.871">A</text>
    </g>
  </g>
</svg>
