<?xml version="1.0" encoding="UTF-8" standalone="yes"?>
<svg xmlns="http://www.w3.org/2000/svg" height="452" width="452">
<script type="text/ecmascript">
      <![CDATA[
        var shown = 1;
        function click() {
             var seq = document.getElementById("seq");
             if (shown==1) {
               seq.setAttribute("style", "visibility: hidden");
               shown = 0;
             } else {
               seq.setAttribute("style", "visibility: visible");
               shown = 1;
             }
         }
        ]]>
</script>
  <rect style="stroke: white; fill: white" height="452" x="0" y="0" width="452" onclick="click(evt)" />
  <g transform="scale(1.626836,1.626836) translate(38.861023,26.515862)">
    <polyline style="stroke: black; fill: none; stroke-width: 1.5" id="outline" points="
      110.794,-0.598
      110.080,14.385
      109.366,29.368
      108.653,44.351
      107.939,59.334
      107.225,74.317
      106.512,89.300
      89.205,92.267
      76.216,102.703
      70.277,117.308
      55.277,117.308
      40.277,117.308
      25.277,117.308
      14.281,105.957
      -1.523,105.790
      -12.757,116.906
      -12.757,132.710
      -1.523,143.826
      14.281,143.659
      25.277,132.308
      40.277,132.308
      55.277,132.308
      70.277,132.308
      77.814,145.962
      91.094,154.140
      90.381,169.123
      89.667,184.106
      88.597,199.068
      75.615,207.786
      71.323,222.823
      77.749,237.080
      91.857,243.824
      106.987,239.872
      115.994,227.089
      114.626,211.511
      103.529,200.494
      107.440,193.904
      104.650,184.820
      105.364,169.837
      106.077,154.854
      116.024,152.211
      124.854,146.262
      131.470,137.471
      134.962,126.663
      134.729,114.951
      149.576,112.816
      164.423,110.681
      179.270,108.547
      192.924,116.971
      207.973,111.414
      212.875,96.138
      203.868,82.862
      187.862,81.770
      177.136,93.699
      162.288,95.834
      147.441,97.969
      132.594,100.104
      121.495,90.014
      122.208,75.031
      122.922,60.048
      123.636,45.065
      124.349,30.082
      125.063,15.099
      125.777,0.116
      128.882,-19.016
    " />
    <g style="stroke: black; stroke-width: 1; fill: none;" id="pairs">
      <line id="1,64" x1="110.79390" y1="-0.59818" x2="125.77691" y2="0.11555" />
      <line id="2,63" x1="110.08017" y1="14.38483" x2="125.06318" y2="15.09856" />
      <line id="3,62" x1="109.36644" y1="29.36784" x2="124.34945" y2="30.08157" />
      <line id="4,61" x1="108.65271" y1="44.35085" x2="123.63572" y2="45.06458" />
      <line id="5,60" x1="107.93898" y1="59.33386" x2="122.92199" y2="60.04759" />
      <line id="6,59" x1="107.22525" y1="74.31686" x2="122.20826" y2="75.03059" />
      <line id="7,58" x1="106.51152" y1="89.29988" x2="121.49454" y2="90.01361" />
      <line id="10,23" x1="70.27721" y1="117.30815" x2="70.27721" y2="132.30815" />
      <line id="11,22" x1="55.27721" y1="117.30815" x2="55.27721" y2="132.30815" />
      <line id="12,21" x1="40.27721" y1="117.30815" x2="40.27721" y2="132.30815" />
      <line id="13,20" x1="25.27720" y1="117.30815" x2="25.27720" y2="132.30815" />
      <line id="25,40" x1="91.09423" y1="154.14041" x2="106.07724" y2="154.85416" />
      <line id="26,39" x1="90.38050" y1="169.12343" x2="105.36351" y2="169.83716" />
      <line id="27,38" x1="89.66677" y1="184.10645" x2="104.64978" y2="184.82016" />
      <line id="28,36" x1="88.59668" y1="199.06822" x2="103.52876" y2="200.49406" />
      <line id="45,57" x1="134.72853" y1="114.95084" x2="132.59381" y2="100.10352" />
      <line id="46,56" x1="149.57585" y1="112.81612" x2="147.44113" y2="97.96879" />
      <line id="47,55" x1="164.42317" y1="110.68139" x2="162.28845" y2="95.83408" />
      <line id="48,54" x1="179.27049" y1="108.54667" x2="177.13577" y2="93.69934" />
    </g>
    <g style="font-family: SansSerif" transform="translate(-4.6, 4)" id="seq">
      <text x="110.794" y="-0.598">G</text>
      <text x="110.080" y="14.385">U</text>
      <text x="109.366" y="29.368">U</text>
      <text x="108.653" y="44.351">U</text>
      <text x="107.939" y="59.334">U</text>
      <text x="107.225" y="74.317">U</text>
      <text x="106.512" y="89.300">A</text>
      <text x="89.205" y="92.267">U</text>
      <text x="76.216" y="102.703">A</text>
      <text x="70.277" y="117.308">G</text>
      <text x="55.277" y="117.308">U</text>
      <text x="40.277" y="117.308">U</text>
      <text x="25.277" y="117.308">U</text>
      <text x="14.281" y="105.957">A</text>
      <text x="-1.523" y="105.790">U</text>
      <text x="-12.757" y="116.906">U</text>
      <text x="-12.757" y="132.710">A</text>
      <text x="-1.523" y="143.826">A</text>
      <text x="14.281" y="143.659">A</text>
      <text x="25.277" y="132.308">A</text>
      <text x="40.277" y="132.308">A</text>
      <text x="55.277" y="132.308">A</text>
      <text x="70.277" y="132.308">C</text>
      <text x="77.814" y="145.962">A</text>
      <text x="91.094" y="154.140">U</text>
      <text x="90.381" y="169.123">U</text>
      <text x="89.667" y="184.106">G</text>
      <text x="88.597" y="199.068">U</text>
      <text x="75.615" y="207.786">C</text>
      <text x="71.323" y="222.823">U</text>
      <text x="77.749" y="237.080">U</text>
      <text x="91.857" y="243.824">G</text>
      <text x="106.987" y="239.872">U</text>
      <text x="115.994" y="227.089">A</text>
      <text x="114.626" y="211.511">A</text>
      <text x="103.529" y="200.494">A</text>
      <text x="107.440" y="193.904">C</text>
      <text x="104.650" y="184.820">C</text>
      <text x="105.364" y="169.837">A</text>
      <text x="106.077" y="154.854">A</text>
      <text x="116.024" y="152.211">A</text>
      <text x="124.854" y="146.262">A</text>
      <text x="131.470" y="137.471">A</text>
      <text x="134.962" y="126.663">U</text>
      <text x="134.729" y="114.951">A</text>
      <text x="149.576" y="112.816">A</text>
      <text x="164.423" y="110.681">G</text>
      <text x="179.270" y="108.547">A</text>
      <text x="192.924" y="116.971">U</text>
      <text x="207.973" y="111.414">A</text>
      <text x="212.875" y="96.138">A</text>
      <text x="203.868" y="82.862">U</text>
      <text x="187.862" y="81.770">U</text>
      <text x="177.136" y="93.699">U</text>
      <text x="162.288" y="95.834">C</text>
      <text x="147.441" y="97.969">U</text>
      <text x="132.594" y="100.104">U</text>
      <text x="121.495" y="90.014">U</text>
      <text x="122.208" y="75.031">A</text>
      <text x="122.922" y="60.048">A</text>
      <text x="123.636" y="45.065">A</text>
      <text x="124.349" y="30.082">A</text>
      <text x="125.063" y="15.099">A</text>
      <text x="125.777" y="0.116">C</text>
      <text x="128.882" y="-19.016">U</text>
    </g>
  </g>
</svg>
