<?xml version="1.0" encoding="UTF-8" standalone="yes"?>
<svg xmlns="http://www.w3.org/2000/svg" height="452" width="452">
<script type="text/ecmascript">
      <![CDATA[
        var shown = 1;
        function click() {
             var seq = document.getElementById("seq");
             if (shown==1) {
               seq.setAttribute("style", "visibility: hidden");
               shown = 0;
             } else {
               seq.setAttribute("style", "visibility: visible");
               shown = 1;
             }
         }
        ]]>
</script>
  <rect style="stroke: white; fill: white" height="452" x="0" y="0" width="452" onclick="click(evt)" />
  <g transform="scale(1.578453,1.578453) translate(40.733452,39.908073)">
    <polyline style="stroke: black; fill: none; stroke-width: 1.5" id="outline" points="
      117.078,-13.953
      116.395,1.031
      115.712,16.016
      115.030,31.000
      113.666,45.938
      104.267,57.493
      110.053,72.219
      92.336,73.457
      78.313,82.799
      71.171,97.051
      56.206,96.027
      41.241,95.003
      26.276,93.980
      16.079,81.905
      0.324,80.659
      -11.643,90.983
      -12.721,106.750
      -2.272,118.607
      13.506,119.519
      25.252,108.945
      40.217,109.968
      55.182,110.992
      70.147,112.016
      76.456,125.694
      88.565,134.655
      86.523,149.515
      84.480,164.375
      82.438,179.236
      80.395,194.096
      67.064,202.269
      62.154,217.116
      67.984,231.626
      81.801,238.948
      97.081,235.625
      106.610,223.226
      105.888,207.605
      95.256,196.138
      97.298,181.278
      99.341,166.418
      101.383,151.557
      103.426,136.697
      113.357,134.995
      122.510,130.005
      129.796,122.067
      134.267,111.882
      135.241,100.450
      150.237,100.109
      165.234,99.767
      179.206,107.188
      191.754,99.163
      207.727,104.847
      217.611,91.073
      207.110,77.762
      191.413,84.167
      178.513,76.722
      164.892,84.771
      149.896,85.112
      134.900,85.454
      124.914,74.261
      134.458,61.643
      128.526,47.981
      132.587,42.080
      132.755,35.969
      130.014,31.683
      130.697,16.699
      131.380,1.714
      132.062,-13.270
      135.127,-32.408
    " />
    <g style="stroke: black; stroke-width: 1; fill: none;" id="pairs">
      <line id="1,67" x1="117.07780" y1="-13.95299" x2="132.06226" y2="-13.27028" />
      <line id="2,66" x1="116.39509" y1="1.03146" x2="131.37955" y2="1.71419" />
      <line id="3,65" x1="115.71236" y1="16.01591" x2="130.69682" y2="16.69864" />
      <line id="4,64" x1="115.02965" y1="31.00038" x2="130.01410" y2="31.68309" />
      <line id="5,61" x1="113.66563" y1="45.93823" x2="128.52591" y2="47.98073" />
      <line id="7,59" x1="110.05347" y1="72.21860" x2="124.91376" y2="74.26109" />
      <line id="10,23" x1="71.17067" y1="97.05063" x2="70.14703" y2="112.01566" />
      <line id="11,22" x1="56.20564" y1="96.02699" x2="55.18200" y2="110.99202" />
      <line id="12,21" x1="41.24061" y1="95.00335" x2="40.21697" y2="109.96838" />
      <line id="13,20" x1="26.27558" y1="93.97971" x2="25.25194" y2="108.94475" />
      <line id="25,41" x1="88.56523" y1="134.65466" x2="103.42552" y2="136.69717" />
      <line id="26,40" x1="86.52274" y1="149.51495" x2="101.38303" y2="151.55745" />
      <line id="27,39" x1="84.48023" y1="164.37524" x2="99.34052" y2="166.41774" />
      <line id="28,38" x1="82.43774" y1="179.23553" x2="97.29803" y2="181.27803" />
      <line id="29,37" x1="80.39523" y1="194.09583" x2="95.25552" y2="196.13832" />
      <line id="46,58" x1="135.24132" y1="100.44996" x2="134.89986" y2="85.45385" />
      <line id="47,57" x1="150.23743" y1="100.10851" x2="149.89598" y2="85.11240" />
      <line id="48,56" x1="165.23354" y1="99.76707" x2="164.89209" y2="84.77095" />
      <line id="50,54" x1="191.75410" y1="99.16322" x2="191.41266" y2="84.16711" />
    </g>
    <g style="font-family: SansSerif" transform="translate(-4.6, 4)" id="seq">
      <text x="117.078" y="-13.953">A</text>
      <text x="116.395" y="1.031">G</text>
      <text x="115.712" y="16.016">G</text>
      <text x="115.030" y="31.000">A</text>
      <text x="113.666" y="45.938">U</text>
      <text x="104.267" y="57.493">U</text>
      <text x="110.053" y="72.219">A</text>
      <text x="92.336" y="73.457">U</text>
      <text x="78.313" y="82.799">A</text>
      <text x="71.171" y="97.051">G</text>
      <text x="56.206" y="96.027">U</text>
      <text x="41.241" y="95.003">U</text>
      <text x="26.276" y="93.980">U</text>
      <text x="16.079" y="81.905">A</text>
      <text x="0.324" y="80.659">U</text>
      <text x="-11.643" y="90.983">A</text>
      <text x="-12.721" y="106.750">A</text>
      <text x="-2.272" y="118.607">U</text>
      <text x="13.506" y="119.519">A</text>
      <text x="25.252" y="108.945">A</text>
      <text x="40.217" y="109.968">A</text>
      <text x="55.182" y="110.992">A</text>
      <text x="70.147" y="112.016">C</text>
      <text x="76.456" y="125.694">A</text>
      <text x="88.565" y="134.655">U</text>
      <text x="86.523" y="149.515">U</text>
      <text x="84.480" y="164.375">U</text>
      <text x="82.438" y="179.236">G</text>
      <text x="80.395" y="194.096">A</text>
      <text x="67.064" y="202.269">U</text>
      <text x="62.154" y="217.116">U</text>
      <text x="67.984" y="231.626">U</text>
      <text x="81.801" y="238.948">G</text>
      <text x="97.081" y="235.625">C</text>
      <text x="106.610" y="223.226">A</text>
      <text x="105.888" y="207.605">U</text>
      <text x="95.256" y="196.138">U</text>
      <text x="97.298" y="181.278">C</text>
      <text x="99.341" y="166.418">A</text>
      <text x="101.383" y="151.557">A</text>
      <text x="103.426" y="136.697">A</text>
      <text x="113.357" y="134.995">A</text>
      <text x="122.510" y="130.005">A</text>
      <text x="129.796" y="122.067">A</text>
      <text x="134.267" y="111.882">A</text>
      <text x="135.241" y="100.450">A</text>
      <text x="150.237" y="100.109">U</text>
      <text x="165.234" y="99.767">U</text>
      <text x="179.206" y="107.188">A</text>
      <text x="191.754" y="99.163">A</text>
      <text x="207.727" y="104.847">U</text>
      <text x="217.611" y="91.073">A</text>
      <text x="207.110" y="77.762">U</text>
      <text x="191.413" y="84.167">U</text>
      <text x="178.513" y="76.722">C</text>
      <text x="164.892" y="84.771">A</text>
      <text x="149.896" y="85.112">A</text>
      <text x="134.900" y="85.454">U</text>
      <text x="124.914" y="74.261">U</text>
      <text x="134.458" y="61.643">U</text>
      <text x="128.526" y="47.981">A</text>
      <text x="132.587" y="42.080">U</text>
      <text x="132.755" y="35.969">A</text>
      <text x="130.014" y="31.683">U</text>
      <text x="130.697" y="16.699">C</text>
      <text x="131.380" y="1.714">U</text>
      <text x="132.062" y="-13.270">U</text>
      <text x="135.127" y="-32.408">A</text>
    </g>
  </g>
</svg>
