<?xml version="1.0" encoding="UTF-8" standalone="yes"?>
<svg xmlns="http://www.w3.org/2000/svg" height="452" width="452">
<script type="text/ecmascript">
      <![CDATA[
        var shown = 1;
        function click() {
             var seq = document.getElementById("seq");
             if (shown==1) {
               seq.setAttribute("style", "visibility: hidden");
               shown = 0;
             } else {
               seq.setAttribute("style", "visibility: visible");
               shown = 1;
             }
         }
        ]]>
</script>
  <rect style="stroke: white; fill: white" height="452" x="0" y="0" width="452" onclick="click(evt)" />
  <g transform="scale(1.650519,1.650519) translate(17.287048,21.520454)">
    <polyline style="stroke: black; fill: none; stroke-width: 1.5" id="outline" points="
      114.108,4.469
      113.454,19.455
      112.800,34.440
      112.145,49.426
      111.491,64.412
      110.837,79.397
      110.183,94.383
      92.552,95.383
      78.069,104.074
      69.695,117.853
      54.923,115.248
      40.151,112.644
      32.489,99.012
      17.840,93.542
      3.119,98.817
      -4.723,112.347
      -1.982,127.742
      10.047,137.735
      25.684,137.605
      37.546,127.416
      52.318,130.020
      67.090,132.625
      69.240,142.651
      74.367,151.532
      81.975,158.406
      76.845,172.502
      71.715,186.597
      66.584,200.693
      51.829,205.871
      43.898,219.348
      46.537,234.761
      58.500,244.833
      74.138,244.807
      86.067,234.696
      88.655,219.274
      80.680,205.823
      85.810,191.728
      90.940,177.632
      96.071,163.537
      105.392,164.032
      114.672,161.871
      123.153,157.119
      130.115,150.059
      134.932,141.170
      137.129,131.104
      136.429,120.630
      151.415,119.976
      166.401,119.321
      181.386,118.667
      196.372,118.013
      205.926,130.240
      220.851,134.484
      235.409,129.113
      244.002,116.192
      243.325,100.690
      233.639,88.567
      218.668,84.485
      204.170,90.014
      195.718,103.027
      180.732,103.681
      165.746,104.335
      150.761,104.990
      135.775,105.644
      125.168,95.037
      125.823,80.052
      126.477,65.066
      127.131,50.080
      127.785,35.095
      128.440,20.109
      129.094,5.123
      132.123,-14.020
    " />
    <g style="stroke: black; stroke-width: 1; fill: none;" id="pairs">
      <line id="1,70" x1="114.10831" y1="4.46884" x2="129.09402" y2="5.12314" />
      <line id="2,69" x1="113.45402" y1="19.45457" x2="128.43974" y2="20.10886" />
      <line id="3,68" x1="112.79973" y1="34.44029" x2="127.78545" y2="35.09457" />
      <line id="4,67" x1="112.14544" y1="49.42601" x2="127.13116" y2="50.08031" />
      <line id="5,66" x1="111.49114" y1="64.41174" x2="126.47687" y2="65.06602" />
      <line id="6,65" x1="110.83685" y1="79.39746" x2="125.82258" y2="80.05176" />
      <line id="7,64" x1="110.18256" y1="94.38318" x2="125.16829" y2="95.03748" />
      <line id="10,22" x1="69.69514" y1="117.85310" x2="67.09042" y2="132.62521" />
      <line id="11,21" x1="54.92302" y1="115.24837" x2="52.31830" y2="130.02049" />
      <line id="12,20" x1="40.15091" y1="112.64365" x2="37.54618" y2="127.41577" />
      <line id="25,39" x1="81.97523" y1="158.40646" x2="96.07062" y2="163.53677" />
      <line id="26,38" x1="76.84493" y1="172.50186" x2="90.94032" y2="177.63217" />
      <line id="27,37" x1="71.71463" y1="186.59726" x2="85.81001" y2="191.72755" />
      <line id="28,36" x1="66.58433" y1="200.69264" x2="80.67972" y2="205.82294" />
      <line id="46,63" x1="136.42918" y1="120.62980" x2="135.77489" y2="105.64407" />
      <line id="47,62" x1="151.41490" y1="119.97551" x2="150.76060" y2="104.98978" />
      <line id="48,61" x1="166.40062" y1="119.32122" x2="165.74634" y2="104.33549" />
      <line id="49,60" x1="181.38635" y1="118.66692" x2="180.73206" y2="103.68121" />
      <line id="50,59" x1="196.37207" y1="118.01263" x2="195.71779" y2="103.02692" />
    </g>
    <g style="font-family: SansSerif" transform="translate(-4.6, 4)" id="seq">
      <text x="114.108" y="4.469">C</text>
      <text x="113.454" y="19.455">A</text>
      <text x="112.800" y="34.440">U</text>
      <text x="112.145" y="49.426">U</text>
      <text x="111.491" y="64.412">A</text>
      <text x="110.837" y="79.397">G</text>
      <text x="110.183" y="94.383">A</text>
      <text x="92.552" y="95.383">U</text>
      <text x="78.069" y="104.074">G</text>
      <text x="69.695" y="117.853">A</text>
      <text x="54.923" y="115.248">C</text>
      <text x="40.151" y="112.644">U</text>
      <text x="32.489" y="99.012">G</text>
      <text x="17.840" y="93.542">A</text>
      <text x="3.119" y="98.817">A</text>
      <text x="-4.723" y="112.347">A</text>
      <text x="-1.982" y="127.742">G</text>
      <text x="10.047" y="137.735">C</text>
      <text x="25.684" y="137.605">A</text>
      <text x="37.546" y="127.416">A</text>
      <text x="52.318" y="130.020">G</text>
      <text x="67.090" y="132.625">U</text>
      <text x="69.240" y="142.651">A</text>
      <text x="74.367" y="151.532">U</text>
      <text x="81.975" y="158.406">U</text>
      <text x="76.845" y="172.502">G</text>
      <text x="71.715" y="186.597">G</text>
      <text x="66.584" y="200.693">U</text>
      <text x="51.829" y="205.871">C</text>
      <text x="43.898" y="219.348">U</text>
      <text x="46.537" y="234.761">C</text>
      <text x="58.500" y="244.833">U</text>
      <text x="74.138" y="244.807">U</text>
      <text x="86.067" y="234.696">A</text>
      <text x="88.655" y="219.274">A</text>
      <text x="80.680" y="205.823">A</text>
      <text x="85.810" y="191.728">C</text>
      <text x="90.940" y="177.632">C</text>
      <text x="96.071" y="163.537">A</text>
      <text x="105.392" y="164.032">C</text>
      <text x="114.672" y="161.871">U</text>
      <text x="123.153" y="157.119">U</text>
      <text x="130.115" y="150.059">C</text>
      <text x="134.932" y="141.170">A</text>
      <text x="137.129" y="131.104">U</text>
      <text x="136.429" y="120.630">A</text>
      <text x="151.415" y="119.976">G</text>
      <text x="166.401" y="119.321">U</text>
      <text x="181.386" y="118.667">A</text>
      <text x="196.372" y="118.013">A</text>
      <text x="205.926" y="130.240">A</text>
      <text x="220.851" y="134.484">U</text>
      <text x="235.409" y="129.113">U</text>
      <text x="244.002" y="116.192">A</text>
      <text x="243.325" y="100.690">G</text>
      <text x="233.639" y="88.567">C</text>
      <text x="218.668" y="84.485">A</text>
      <text x="204.170" y="90.014">A</text>
      <text x="195.718" y="103.027">U</text>
      <text x="180.732" y="103.681">U</text>
      <text x="165.746" y="104.335">A</text>
      <text x="150.761" y="104.990">C</text>
      <text x="135.775" y="105.644">U</text>
      <text x="125.168" y="95.037">U</text>
      <text x="125.823" y="80.052">C</text>
      <text x="126.477" y="65.066">U</text>
      <text x="127.131" y="50.080">A</text>
      <text x="127.785" y="35.095">A</text>
      <text x="128.440" y="20.109">U</text>
      <text x="129.094" y="5.123">G</text>
      <text x="132.123" y="-14.020">A</text>
    </g>
  </g>
</svg>
