<?xml version="1.0" encoding="UTF-8" standalone="yes"?>
<svg xmlns="http://www.w3.org/2000/svg" height="452" width="452">
<script type="text/ecmascript">
      <![CDATA[
        var shown = 1;
        function click() {
             var seq = document.getElementById("seq");
             if (shown==1) {
               seq.setAttribute("style", "visibility: hidden");
               shown = 0;
             } else {
               seq.setAttribute("style", "visibility: visible");
               shown = 1;
             }
         }
        ]]>
</script>
  <rect style="stroke: white; fill: white" height="452" x="0" y="0" width="452" onclick="click(evt)" />
  <g transform="scale(1.945290,1.945290) translate(15.299316,6.580170)">
    <polyline style="stroke: black; fill: none; stroke-width: 1.5" id="outline" points="
      98.661,19.083
      97.737,34.054
      96.814,49.026
      88.308,61.252
      95.181,75.503
      94.257,90.474
      84.045,94.633
      76.094,102.273
      71.531,112.311
      71.003,123.325
      57.189,129.172
      43.375,135.019
      29.562,140.866
      14.213,136.197
      1.075,145.405
      0.227,161.426
      12.319,171.970
      28.075,168.948
      35.409,154.679
      49.222,148.832
      63.036,142.986
      76.849,137.139
      94.618,147.987
      115.106,144.290
      125.874,154.732
      136.643,165.174
      147.412,175.616
      158.180,186.058
      156.877,201.641
      165.938,214.387
      181.084,218.276
      195.164,211.473
      201.530,197.190
      197.176,182.171
      184.158,173.507
      168.622,175.289
      157.854,164.847
      147.085,154.405
      136.316,143.963
      125.548,133.521
      129.217,121.266
      127.312,108.615
      120.197,97.983
      109.229,91.398
      110.152,76.426
      118.724,63.128
      111.785,49.949
      112.709,34.977
      113.632,20.006
      117.004,0.920
    " />
    <g style="stroke: black; stroke-width: 1; fill: none;" id="pairs">
      <line id="1,49" x1="98.66052" y1="19.08250" x2="113.63207" y2="20.00591" />
      <line id="2,48" x1="97.73711" y1="34.05405" x2="112.70866" y2="34.97746" />
      <line id="3,47" x1="96.81370" y1="49.02560" x2="111.78525" y2="49.94901" />
      <line id="5,45" x1="95.18064" y1="75.50273" x2="110.15219" y2="76.42615" />
      <line id="6,44" x1="94.25723" y1="90.47427" x2="109.22878" y2="91.39769" />
      <line id="10,22" x1="71.00253" y1="123.32522" x2="76.84932" y2="137.13879" />
      <line id="11,21" x1="57.18895" y1="129.17200" x2="63.03574" y2="142.98560" />
      <line id="12,20" x1="43.37537" y1="135.01880" x2="49.22215" y2="148.83237" />
      <line id="13,19" x1="29.56178" y1="140.86559" x2="35.40857" y2="154.67917" />
      <line id="24,40" x1="115.10561" y1="144.29013" x2="125.54762" y2="133.52145" />
      <line id="25,39" x1="125.87428" y1="154.73215" x2="136.31630" y2="143.96347" />
      <line id="26,38" x1="136.64296" y1="165.17416" x2="147.08498" y2="154.40549" />
      <line id="27,37" x1="147.41164" y1="175.61617" x2="157.85365" y2="164.84749" />
      <line id="28,36" x1="158.18033" y1="186.05818" x2="168.62233" y2="175.28949" />
    </g>
    <g style="font-family: SansSerif" transform="translate(-4.6, 4)" id="seq">
      <text x="98.661" y="19.083">A</text>
      <text x="97.737" y="34.054">U</text>
      <text x="96.814" y="49.026">U</text>
      <text x="88.308" y="61.252">U</text>
      <text x="95.181" y="75.503">A</text>
      <text x="94.257" y="90.474">U</text>
      <text x="84.045" y="94.633">A</text>
      <text x="76.094" y="102.273">U</text>
      <text x="71.531" y="112.311">A</text>
      <text x="71.003" y="123.325">A</text>
      <text x="57.189" y="129.172">U</text>
      <text x="43.375" y="135.019">A</text>
      <text x="29.562" y="140.866">U</text>
      <text x="14.213" y="136.197">A</text>
      <text x="1.075" y="145.405">U</text>
      <text x="0.227" y="161.426">U</text>
      <text x="12.319" y="171.970">U</text>
      <text x="28.075" y="168.948">A</text>
      <text x="35.409" y="154.679">G</text>
      <text x="49.222" y="148.832">U</text>
      <text x="63.036" y="142.986">A</text>
      <text x="76.849" y="137.139">U</text>
      <text x="94.618" y="147.987">A</text>
      <text x="115.106" y="144.290">U</text>
      <text x="125.874" y="154.732">U</text>
      <text x="136.643" y="165.174">U</text>
      <text x="147.412" y="175.616">G</text>
      <text x="158.180" y="186.058">A</text>
      <text x="156.877" y="201.641">C</text>
      <text x="165.938" y="214.387">U</text>
      <text x="181.084" y="218.276">U</text>
      <text x="195.164" y="211.473">C</text>
      <text x="201.530" y="197.190">C</text>
      <text x="197.176" y="182.171">A</text>
      <text x="184.158" y="173.507">A</text>
      <text x="168.622" y="175.289">U</text>
      <text x="157.854" y="164.847">C</text>
      <text x="147.085" y="154.405">A</text>
      <text x="136.316" y="143.963">A</text>
      <text x="125.548" y="133.521">A</text>
      <text x="129.217" y="121.266">A</text>
      <text x="127.312" y="108.615">A</text>
      <text x="120.197" y="97.983">G</text>
      <text x="109.229" y="91.398">A</text>
      <text x="110.152" y="76.426">U</text>
      <text x="118.724" y="63.128">U</text>
      <text x="111.785" y="49.949">A</text>
      <text x="112.709" y="34.977">A</text>
      <text x="113.632" y="20.006">U</text>
      <text x="117.004" y="0.920">A</text>
    </g>
  </g>
</svg>
