<?xml version="1.0" encoding="UTF-8" standalone="yes"?>
<svg xmlns="http://www.w3.org/2000/svg" height="452" width="452">
<script type="text/ecmascript">
      <![CDATA[
        var shown = 1;
        function click() {
             var seq = document.getElementById("seq");
             if (shown==1) {
               seq.setAttribute("style", "visibility: hidden");
               shown = 0;
             } else {
               seq.setAttribute("style", "visibility: visible");
               shown = 1;
             }
         }
        ]]>
</script>
  <rect style="stroke: white; fill: white" height="452" x="0" y="0" width="452" onclick="click(evt)" />
  <g transform="scale(1.605151,1.605151) translate(31.044220,30.751709)">
    <polyline style="stroke: black; fill: none; stroke-width: 1.5" id="outline" points="
      111.555,-4.809
      110.863,10.175
      110.170,25.159
      109.477,40.143
      108.784,55.127
      108.092,70.111
      107.399,85.095
      90.907,87.344
      78.048,96.529
      71.337,109.902
      56.401,108.518
      41.465,107.134
      26.529,105.750
      15.215,94.376
      -0.715,96.273
      -9.042,109.986
      -3.377,124.995
      11.934,129.787
      25.145,120.686
      40.081,122.070
      55.017,123.454
      69.953,124.838
      75.725,138.422
      87.211,147.690
      74.456,156.632
      71.871,171.624
      80.474,183.729
      77.718,198.474
      64.008,205.995
      58.388,220.588
      63.512,235.362
      76.960,243.342
      92.383,240.759
      102.498,228.833
      102.529,213.196
      92.462,201.230
      95.218,186.485
      107.613,178.306
      110.619,163.392
      101.955,150.447
      112.740,148.887
      122.636,143.493
      130.283,134.713
      134.533,123.473
      134.616,111.083
      149.552,109.699
      164.488,108.315
      179.424,106.931
      194.360,105.547
      207.571,114.648
      222.882,109.856
      228.547,94.847
      220.220,81.134
      204.290,79.236
      192.976,90.611
      178.040,91.995
      163.104,93.379
      148.168,94.763
      133.232,96.147
      122.383,85.788
      123.076,70.804
      123.768,55.820
      124.461,40.836
      125.154,25.852
      125.847,10.868
      126.539,-4.116
      129.617,-23.252
    " />
    <g style="stroke: black; stroke-width: 1; fill: none;" id="pairs">
      <line id="1,66" x1="111.55543" y1="-4.80872" x2="126.53942" y2="-4.11597" />
      <line id="2,65" x1="110.86267" y1="10.17528" x2="125.84666" y2="10.86803" />
      <line id="3,64" x1="110.16992" y1="25.15927" x2="125.15392" y2="25.85202" />
      <line id="4,63" x1="109.47717" y1="40.14326" x2="124.46117" y2="40.83601" />
      <line id="5,62" x1="108.78442" y1="55.12726" x2="123.76841" y2="55.82002" />
      <line id="6,61" x1="108.09167" y1="70.11125" x2="123.07566" y2="70.80402" />
      <line id="7,60" x1="107.39891" y1="85.09525" x2="122.38291" y2="85.78801" />
      <line id="10,22" x1="71.33728" y1="109.90187" x2="69.95325" y2="124.83788" />
      <line id="11,21" x1="56.40126" y1="108.51785" x2="55.01724" y2="123.45386" />
      <line id="12,20" x1="41.46525" y1="107.13382" x2="40.08123" y2="122.06983" />
      <line id="13,19" x1="26.52924" y1="105.74979" x2="25.14521" y2="120.68581" />
      <line id="24,40" x1="87.21068" y1="147.69040" x2="101.95527" y2="150.44666" />
      <line id="27,37" x1="80.47388" y1="183.72910" x2="95.21848" y2="186.48534" />
      <line id="28,36" x1="77.71764" y1="198.47369" x2="92.46223" y2="201.22993" />
      <line id="45,59" x1="134.61569" y1="111.08280" x2="133.23167" y2="96.14679" />
      <line id="46,58" x1="149.55171" y1="109.69878" x2="148.16768" y2="94.76276" />
      <line id="47,57" x1="164.48772" y1="108.31475" x2="163.10370" y2="93.37874" />
      <line id="48,56" x1="179.42374" y1="106.93073" x2="178.03970" y2="91.99471" />
      <line id="49,55" x1="194.35974" y1="105.54670" x2="192.97572" y2="90.61069" />
    </g>
    <g style="font-family: SansSerif" transform="translate(-4.6, 4)" id="seq">
      <text x="111.555" y="-4.809">A</text>
      <text x="110.863" y="10.175">A</text>
      <text x="110.170" y="25.159">U</text>
      <text x="109.477" y="40.143">U</text>
      <text x="108.784" y="55.127">A</text>
      <text x="108.092" y="70.111">A</text>
      <text x="107.399" y="85.095">U</text>
      <text x="90.907" y="87.344">G</text>
      <text x="78.048" y="96.529">A</text>
      <text x="71.337" y="109.902">G</text>
      <text x="56.401" y="108.518">C</text>
      <text x="41.465" y="107.134">U</text>
      <text x="26.529" y="105.750">U</text>
      <text x="15.215" y="94.376">G</text>
      <text x="-0.715" y="96.273">U</text>
      <text x="-9.042" y="109.986">U</text>
      <text x="-3.377" y="124.995">A</text>
      <text x="11.934" y="129.787">U</text>
      <text x="25.145" y="120.686">A</text>
      <text x="40.081" y="122.070">A</text>
      <text x="55.017" y="123.454">G</text>
      <text x="69.953" y="124.838">C</text>
      <text x="75.725" y="138.422">A</text>
      <text x="87.211" y="147.690">U</text>
      <text x="74.456" y="156.632">U</text>
      <text x="71.871" y="171.624">U</text>
      <text x="80.474" y="183.729">G</text>
      <text x="77.718" y="198.474">U</text>
      <text x="64.008" y="205.995">U</text>
      <text x="58.388" y="220.588">U</text>
      <text x="63.512" y="235.362">U</text>
      <text x="76.960" y="243.342">G</text>
      <text x="92.383" y="240.759">A</text>
      <text x="102.498" y="228.833">A</text>
      <text x="102.529" y="213.196">A</text>
      <text x="92.462" y="201.230">A</text>
      <text x="95.218" y="186.485">C</text>
      <text x="107.613" y="178.306">U</text>
      <text x="110.619" y="163.392">U</text>
      <text x="101.955" y="150.447">A</text>
      <text x="112.740" y="148.887">A</text>
      <text x="122.636" y="143.493">G</text>
      <text x="130.283" y="134.713">A</text>
      <text x="134.533" y="123.473">A</text>
      <text x="134.616" y="111.083">A</text>
      <text x="149.552" y="109.699">G</text>
      <text x="164.488" y="108.315">A</text>
      <text x="179.424" y="106.931">A</text>
      <text x="194.360" y="105.547">U</text>
      <text x="207.571" y="114.648">U</text>
      <text x="222.882" y="109.856">A</text>
      <text x="228.547" y="94.847">U</text>
      <text x="220.220" y="81.134">U</text>
      <text x="204.290" y="79.236">U</text>
      <text x="192.976" y="90.611">A</text>
      <text x="178.040" y="91.995">U</text>
      <text x="163.104" y="93.379">U</text>
      <text x="148.168" y="94.763">C</text>
      <text x="133.232" y="96.147">U</text>
      <text x="122.383" y="85.788">A</text>
      <text x="123.076" y="70.804">U</text>
      <text x="123.768" y="55.820">U</text>
      <text x="124.461" y="40.836">A</text>
      <text x="125.154" y="25.852">A</text>
      <text x="125.847" y="10.868">U</text>
      <text x="126.539" y="-4.116">U</text>
      <text x="129.617" y="-23.252">U</text>
    </g>
  </g>
</svg>
