<?xml version="1.0" encoding="UTF-8" standalone="yes"?>
<svg xmlns="http://www.w3.org/2000/svg" height="452" width="452">
<script type="text/ecmascript">
      <![CDATA[
        var shown = 1;
        function click() {
             var seq = document.getElementById("seq");
             if (shown==1) {
               seq.setAttribute("style", "visibility: hidden");
               shown = 0;
             } else {
               seq.setAttribute("style", "visibility: visible");
               shown = 1;
             }
         }
        ]]>
</script>
  <rect style="stroke: white; fill: white" height="452" x="0" y="0" width="452" onclick="click(evt)" />
  <g transform="scale(1.545669,1.545669) translate(44.222633,40.989189)">
    <polyline style="stroke: black; fill: none; stroke-width: 1.5" id="outline" points="
      110.964,-15.098
      110.228,-0.117
      109.492,14.865
      108.756,29.847
      108.020,44.829
      107.284,59.811
      106.548,74.793
      89.683,77.591
      76.820,87.486
      70.512,101.494
      55.530,100.758
      40.548,100.022
      25.566,99.286
      12.084,89.949
      -2.625,97.201
      -3.429,113.580
      10.498,122.238
      24.830,114.268
      39.812,115.004
      54.794,115.740
      69.776,116.476
      76.664,130.581
      89.606,139.464
      88.136,154.392
      86.666,169.320
      85.195,184.248
      83.725,199.176
      70.717,207.855
      66.381,222.879
      72.764,237.155
      86.852,243.941
      101.994,240.033
      111.039,227.278
      109.718,211.696
      98.653,200.646
      100.123,185.718
      101.593,170.790
      103.064,155.862
      104.534,140.935
      114.966,138.629
      124.320,132.746
      131.371,123.767
      135.102,112.589
      134.845,100.440
      149.683,98.239
      164.520,96.038
      179.358,93.837
      194.402,100.364
      207.414,90.383
      205.008,74.161
      189.659,68.387
      177.157,79.000
      162.319,81.201
      147.482,83.402
      132.644,85.603
      121.530,75.529
      122.266,60.547
      123.002,45.565
      123.738,30.583
      124.474,15.601
      125.210,0.620
      125.946,-14.362
      129.079,-33.489
    " />
    <g style="stroke: black; stroke-width: 1; fill: none;" id="pairs">
      <line id="1,62" x1="110.96389" y1="-15.09843" x2="125.94582" y2="-14.36241" />
      <line id="2,61" x1="110.22787" y1="-0.11650" x2="125.20981" y2="0.61951" />
      <line id="3,60" x1="109.49186" y1="14.86543" x2="124.47379" y2="15.60144" />
      <line id="4,59" x1="108.75584" y1="29.84737" x2="123.73778" y2="30.58337" />
      <line id="5,58" x1="108.01983" y1="44.82930" x2="123.00176" y2="45.56531" />
      <line id="6,57" x1="107.28381" y1="59.81122" x2="122.26575" y2="60.54724" />
      <line id="7,56" x1="106.54780" y1="74.79315" x2="121.52973" y2="75.52917" />
      <line id="10,21" x1="70.51214" y1="101.49393" x2="69.77612" y2="116.47585" />
      <line id="11,20" x1="55.53020" y1="100.75791" x2="54.79419" y2="115.73984" />
      <line id="12,19" x1="40.54827" y1="100.02190" x2="39.81226" y2="115.00382" />
      <line id="13,18" x1="25.56634" y1="99.28588" x2="24.83033" y2="114.26781" />
      <line id="23,39" x1="89.60620" y1="139.46442" x2="104.53397" y2="140.93469" />
      <line id="24,38" x1="88.13594" y1="154.39220" x2="103.06371" y2="155.86246" />
      <line id="25,37" x1="86.66569" y1="169.31996" x2="101.59345" y2="170.79022" />
      <line id="26,36" x1="85.19543" y1="184.24774" x2="100.12320" y2="185.71799" />
      <line id="27,35" x1="83.72517" y1="199.17551" x2="98.65294" y2="200.64577" />
      <line id="44,55" x1="134.84496" y1="100.44020" x2="132.64400" y2="85.60255" />
      <line id="45,54" x1="149.68260" y1="98.23925" x2="147.48164" y2="83.40160" />
      <line id="46,53" x1="164.52025" y1="96.03829" x2="162.31929" y2="81.20064" />
      <line id="47,52" x1="179.35789" y1="93.83733" x2="177.15694" y2="78.99968" />
    </g>
    <g style="font-family: SansSerif" transform="translate(-4.6, 4)" id="seq">
      <text x="110.964" y="-15.098">A</text>
      <text x="110.228" y="-0.117">G</text>
      <text x="109.492" y="14.865">U</text>
      <text x="108.756" y="29.847">C</text>
      <text x="108.020" y="44.829">U</text>
      <text x="107.284" y="59.811">U</text>
      <text x="106.548" y="74.793">G</text>
      <text x="89.683" y="77.591">U</text>
      <text x="76.820" y="87.486">A</text>
      <text x="70.512" y="101.494">G</text>
      <text x="55.530" y="100.758">U</text>
      <text x="40.548" y="100.022">C</text>
      <text x="25.566" y="99.286">A</text>
      <text x="12.084" y="89.949">A</text>
      <text x="-2.625" y="97.201">U</text>
      <text x="-3.429" y="113.580">A</text>
      <text x="10.498" y="122.238">A</text>
      <text x="24.830" y="114.268">U</text>
      <text x="39.812" y="115.004">G</text>
      <text x="54.794" y="115.740">A</text>
      <text x="69.776" y="116.476">U</text>
      <text x="76.664" y="130.581">A</text>
      <text x="89.606" y="139.464">U</text>
      <text x="88.136" y="154.392">A</text>
      <text x="86.666" y="169.320">A</text>
      <text x="85.195" y="184.248">A</text>
      <text x="83.725" y="199.176">A</text>
      <text x="70.717" y="207.855">U</text>
      <text x="66.381" y="222.879">U</text>
      <text x="72.764" y="237.155">G</text>
      <text x="86.852" y="243.941">C</text>
      <text x="101.994" y="240.033">A</text>
      <text x="111.039" y="227.278">A</text>
      <text x="109.718" y="211.696">A</text>
      <text x="98.653" y="200.646">U</text>
      <text x="100.123" y="185.718">U</text>
      <text x="101.593" y="170.790">U</text>
      <text x="103.064" y="155.862">U</text>
      <text x="104.534" y="140.935">A</text>
      <text x="114.966" y="138.629">A</text>
      <text x="124.320" y="132.746">G</text>
      <text x="131.371" y="123.767">G</text>
      <text x="135.102" y="112.589">A</text>
      <text x="134.845" y="100.440">G</text>
      <text x="149.683" y="98.239">U</text>
      <text x="164.520" y="96.038">A</text>
      <text x="179.358" y="93.837">A</text>
      <text x="194.402" y="100.364">A</text>
      <text x="207.414" y="90.383">A</text>
      <text x="205.008" y="74.161">A</text>
      <text x="189.659" y="68.387">A</text>
      <text x="177.157" y="79.000">U</text>
      <text x="162.319" y="81.201">U</text>
      <text x="147.482" y="83.402">A</text>
      <text x="132.644" y="85.603">C</text>
      <text x="121.530" y="75.529">U</text>
      <text x="122.266" y="60.547">A</text>
      <text x="123.002" y="45.565">A</text>
      <text x="123.738" y="30.583">G</text>
      <text x="124.474" y="15.601">G</text>
      <text x="125.210" y="0.620">C</text>
      <text x="125.946" y="-14.362">U</text>
      <text x="129.079" y="-33.489">U</text>
    </g>
  </g>
</svg>
