<?xml version="1.0" encoding="UTF-8" standalone="yes"?>
<svg xmlns="http://www.w3.org/2000/svg" height="452" width="452">
<script type="text/ecmascript">
      <![CDATA[
        var shown = 1;
        function click() {
             var seq = document.getElementById("seq");
             if (shown==1) {
               seq.setAttribute("style", "visibility: hidden");
               shown = 0;
             } else {
               seq.setAttribute("style", "visibility: visible");
               shown = 1;
             }
         }
        ]]>
</script>
  <rect style="stroke: white; fill: white" height="452" x="0" y="0" width="452" onclick="click(evt)" />
  <g transform="scale(2.072783,2.072783) translate(-10.471558,24.480820)">
    <polyline style="stroke: black; fill: none; stroke-width: 1.5" id="outline" points="
      101.758,4.092
      100.886,19.067
      87.112,25.008
      75.622,15.366
      64.131,5.725
      59.034,-9.862
      42.933,-12.976
      32.392,-0.414
      38.254,14.902
      54.489,17.215
      65.980,26.857
      77.471,36.499
      65.897,65.023
      78.305,88.439
      70.063,100.972
      61.820,113.504
      53.577,126.036
      45.335,138.568
      29.783,140.204
      18.958,151.489
      17.972,167.096
      27.289,179.654
      42.511,183.236
      56.450,176.148
      62.525,161.739
      57.867,146.811
      66.110,134.279
      74.352,121.746
      82.595,109.214
      90.838,96.682
      105.998,99.695
      121.647,94.392
      133.275,81.192
      137.002,62.909
      130.810,44.177
      145.406,40.717
      160.002,37.258
      174.597,33.799
      186.279,44.013
      201.736,45.376
      215.025,37.364
      221.036,23.059
      217.457,7.960
      205.666,-2.127
      190.195,-3.322
      176.993,4.833
      171.138,19.203
      156.542,22.663
      141.947,26.122
      127.351,29.581
      115.860,19.939
      116.733,4.965
      120.039,-14.133
    " />
    <g style="stroke: black; stroke-width: 1; fill: none;" id="pairs">
      <line id="1,52" x1="101.75790" y1="4.09239" x2="116.73253" y2="4.96457" />
      <line id="2,51" x1="100.88573" y1="19.06702" x2="115.86035" y2="19.93919" />
      <line id="3,12" x1="87.11249" y1="25.00822" x2="77.47067" y2="36.49889" />
      <line id="4,11" x1="75.62183" y1="15.36641" x2="65.98001" y2="26.85707" />
      <line id="5,10" x1="64.13116" y1="5.72459" x2="54.48934" y2="17.21526" />
      <line id="14,30" x1="78.30534" y1="88.43922" x2="90.83766" y2="96.68185" />
      <line id="15,29" x1="70.06271" y1="100.97153" x2="82.59503" y2="109.21416" />
      <line id="16,28" x1="61.82008" y1="113.50385" x2="74.35239" y2="121.74648" />
      <line id="17,27" x1="53.57744" y1="126.03616" x2="66.10976" y2="134.27881" />
      <line id="18,26" x1="45.33481" y1="138.56848" x2="57.86713" y2="146.81111" />
      <line id="35,50" x1="130.81026" y1="44.17668" x2="127.35102" y2="29.58101" />
      <line id="36,49" x1="145.40593" y1="40.71744" x2="141.94669" y2="26.12177" />
      <line id="37,48" x1="160.00160" y1="37.25821" x2="156.54237" y2="22.66254" />
      <line id="38,47" x1="174.59727" y1="33.79897" x2="171.13805" y2="19.20329" />
    </g>
    <g style="font-family: SansSerif" transform="translate(-4.6, 4)" id="seq">
      <text x="101.758" y="4.092">U</text>
      <text x="100.886" y="19.067">A</text>
      <text x="87.112" y="25.008">G</text>
      <text x="75.622" y="15.366">C</text>
      <text x="64.131" y="5.725">A</text>
      <text x="59.034" y="-9.862">U</text>
      <text x="42.933" y="-12.976">A</text>
      <text x="32.392" y="-0.414">U</text>
      <text x="38.254" y="14.902">U</text>
      <text x="54.489" y="17.215">U</text>
      <text x="65.980" y="26.857">G</text>
      <text x="77.471" y="36.499">C</text>
      <text x="65.897" y="65.023">A</text>
      <text x="78.305" y="88.439">U</text>
      <text x="70.063" y="100.972">U</text>
      <text x="61.820" y="113.504">U</text>
      <text x="53.577" y="126.036">A</text>
      <text x="45.335" y="138.568">A</text>
      <text x="29.783" y="140.204">U</text>
      <text x="18.958" y="151.489">U</text>
      <text x="17.972" y="167.096">U</text>
      <text x="27.289" y="179.654">C</text>
      <text x="42.511" y="183.236">G</text>
      <text x="56.450" y="176.148">A</text>
      <text x="62.525" y="161.739">C</text>
      <text x="57.867" y="146.811">U</text>
      <text x="66.110" y="134.279">U</text>
      <text x="74.352" y="121.746">A</text>
      <text x="82.595" y="109.214">A</text>
      <text x="90.838" y="96.682">A</text>
      <text x="105.998" y="99.695">A</text>
      <text x="121.647" y="94.392">G</text>
      <text x="133.275" y="81.192">A</text>
      <text x="137.002" y="62.909">U</text>
      <text x="130.810" y="44.177">A</text>
      <text x="145.406" y="40.717">G</text>
      <text x="160.002" y="37.258">G</text>
      <text x="174.597" y="33.799">G</text>
      <text x="186.279" y="44.013">U</text>
      <text x="201.736" y="45.376">A</text>
      <text x="215.025" y="37.364">U</text>
      <text x="221.036" y="23.059">U</text>
      <text x="217.457" y="7.960">A</text>
      <text x="205.666" y="-2.127">U</text>
      <text x="190.195" y="-3.322">A</text>
      <text x="176.993" y="4.833">C</text>
      <text x="171.138" y="19.203">C</text>
      <text x="156.542" y="22.663">C</text>
      <text x="141.947" y="26.122">C</text>
      <text x="127.351" y="29.581">U</text>
      <text x="115.860" y="19.939">U</text>
      <text x="116.733" y="4.965">A</text>
      <text x="120.039" y="-14.133">U</text>
    </g>
  </g>
</svg>
