<?xml version="1.0" encoding="UTF-8" standalone="yes"?>
<svg xmlns="http://www.w3.org/2000/svg" height="452" width="452">
<script type="text/ecmascript">
      <![CDATA[
        var shown = 1;
        function click() {
             var seq = document.getElementById("seq");
             if (shown==1) {
               seq.setAttribute("style", "visibility: hidden");
               shown = 0;
             } else {
               seq.setAttribute("style", "visibility: visible");
               shown = 1;
             }
         }
        ]]>
</script>
  <rect style="stroke: white; fill: white" height="452" x="0" y="0" width="452" onclick="click(evt)" />
  <g transform="scale(1.751310,1.751310) translate(9.083092,8.216476)">
    <polyline style="stroke: black; fill: none; stroke-width: 1.5" id="outline" points="
      116.394,20.774
      115.634,35.755
      114.874,50.735
      114.114,65.716
      113.355,80.697
      112.595,95.678
      111.835,110.658
      101.993,109.143
      92.331,110.622
      83.721,114.849
      76.909,121.339
      72.445,129.414
      70.647,138.277
      71.573,147.089
      75.028,155.049
      64.156,165.384
      53.284,175.718
      42.413,186.053
      31.541,196.387
      16.024,194.450
      2.920,202.984
      -1.583,217.960
      4.641,232.305
      18.653,239.248
      33.837,235.509
      43.024,222.854
      41.875,207.259
      52.747,196.925
      63.619,186.590
      74.491,176.256
      85.363,165.921
      97.137,170.824
      110.300,170.128
      122.241,163.603
      130.437,152.210
      132.978,137.973
      147.671,140.992
      162.364,144.012
      177.057,147.031
      191.750,150.051
      198.034,164.238
      211.474,171.993
      226.902,170.334
      238.386,159.898
      241.509,144.699
      235.072,130.580
      221.548,122.971
      206.139,124.798
      194.769,135.358
      180.076,132.338
      165.383,129.319
      150.690,126.299
      135.997,123.280
      126.816,111.418
      127.576,96.437
      128.335,81.457
      129.095,66.476
      129.855,51.495
      130.615,36.514
      131.374,21.534
      134.538,2.412
    " />
    <g style="stroke: black; stroke-width: 1; fill: none;" id="pairs">
      <line id="1,60" x1="116.39359" y1="20.77388" x2="131.37434" y2="21.53362" />
      <line id="2,59" x1="115.63385" y1="35.75462" x2="130.61459" y2="36.51436" />
      <line id="3,58" x1="114.87411" y1="50.73537" x2="129.85486" y2="51.49510" />
      <line id="4,57" x1="114.11438" y1="65.71611" x2="129.09512" y2="66.47586" />
      <line id="5,56" x1="113.35464" y1="80.69687" x2="128.33539" y2="81.45660" />
      <line id="6,55" x1="112.59490" y1="95.67761" x2="127.57565" y2="96.43735" />
      <line id="7,54" x1="111.83517" y1="110.65836" x2="126.81591" y2="111.41809" />
      <line id="15,31" x1="75.02826" y1="155.04913" x2="85.36276" y2="165.92102" />
      <line id="16,30" x1="64.15637" y1="165.38364" x2="74.49088" y2="176.25552" />
      <line id="17,29" x1="53.28448" y1="175.71814" x2="63.61898" y2="186.59003" />
      <line id="18,28" x1="42.41259" y1="186.05264" x2="52.74709" y2="196.92455" />
      <line id="19,27" x1="31.54070" y1="196.38715" x2="41.87520" y2="207.25905" />
      <line id="36,53" x1="132.97803" y1="137.97269" x2="135.99750" y2="123.27973" />
      <line id="37,52" x1="147.67097" y1="140.99216" x2="150.69044" y2="126.29921" />
      <line id="38,51" x1="162.36392" y1="144.01163" x2="165.38341" y2="129.31870" />
      <line id="39,50" x1="177.05687" y1="147.03111" x2="180.07635" y2="132.33817" />
      <line id="40,49" x1="191.74982" y1="150.05060" x2="194.76930" y2="135.35764" />
    </g>
    <g style="font-family: SansSerif" transform="translate(-4.6, 4)" id="seq">
      <text x="116.394" y="20.774">G</text>
      <text x="115.634" y="35.755">A</text>
      <text x="114.874" y="50.735">A</text>
      <text x="114.114" y="65.716">A</text>
      <text x="113.355" y="80.697">U</text>
      <text x="112.595" y="95.678">A</text>
      <text x="111.835" y="110.658">U</text>
      <text x="101.993" y="109.143">A</text>
      <text x="92.331" y="110.622">U</text>
      <text x="83.721" y="114.849">A</text>
      <text x="76.909" y="121.339">A</text>
      <text x="72.445" y="129.414">U</text>
      <text x="70.647" y="138.277">A</text>
      <text x="71.573" y="147.089">A</text>
      <text x="75.028" y="155.049">U</text>
      <text x="64.156" y="165.384">U</text>
      <text x="53.284" y="175.718">A</text>
      <text x="42.413" y="186.053">A</text>
      <text x="31.541" y="196.387">G</text>
      <text x="16.024" y="194.450">C</text>
      <text x="2.920" y="202.984">U</text>
      <text x="-1.583" y="217.960">G</text>
      <text x="4.641" y="232.305">C</text>
      <text x="18.653" y="239.248">U</text>
      <text x="33.837" y="235.509">A</text>
      <text x="43.024" y="222.854">A</text>
      <text x="41.875" y="207.259">C</text>
      <text x="52.747" y="196.925">U</text>
      <text x="63.619" y="186.590">U</text>
      <text x="74.491" y="176.256">A</text>
      <text x="85.363" y="165.921">A</text>
      <text x="97.137" y="170.824">U</text>
      <text x="110.300" y="170.128">U</text>
      <text x="122.241" y="163.603">U</text>
      <text x="130.437" y="152.210">A</text>
      <text x="132.978" y="137.973">U</text>
      <text x="147.671" y="140.992">A</text>
      <text x="162.364" y="144.012">G</text>
      <text x="177.057" y="147.031">U</text>
      <text x="191.750" y="150.051">G</text>
      <text x="198.034" y="164.238">G</text>
      <text x="211.474" y="171.993">U</text>
      <text x="226.902" y="170.334">U</text>
      <text x="238.386" y="159.898">A</text>
      <text x="241.509" y="144.699">A</text>
      <text x="235.072" y="130.580">U</text>
      <text x="221.548" y="122.971">C</text>
      <text x="206.139" y="124.798">C</text>
      <text x="194.769" y="135.358">C</text>
      <text x="180.076" y="132.338">A</text>
      <text x="165.383" y="129.319">U</text>
      <text x="150.690" y="126.299">U</text>
      <text x="135.997" y="123.280">A</text>
      <text x="126.816" y="111.418">A</text>
      <text x="127.576" y="96.437">U</text>
      <text x="128.335" y="81.457">A</text>
      <text x="129.095" y="66.476">U</text>
      <text x="129.855" y="51.495">U</text>
      <text x="130.615" y="36.514">U</text>
      <text x="131.374" y="21.534">C</text>
      <text x="134.538" y="2.412">U</text>
    </g>
  </g>
</svg>
