<?xml version="1.0" encoding="UTF-8" standalone="yes"?>
<svg xmlns="http://www.w3.org/2000/svg" height="452" width="452">
<script type="text/ecmascript">
      <![CDATA[
        var shown = 1;
        function click() {
             var seq = document.getElementById("seq");
             if (shown==1) {
               seq.setAttribute("style", "visibility: hidden");
               shown = 0;
             } else {
               seq.setAttribute("style", "visibility: visible");
               shown = 1;
             }
         }
        ]]>
</script>
  <rect style="stroke: white; fill: white" height="452" x="0" y="0" width="452" onclick="click(evt)" />
  <g transform="scale(1.539921,1.539921) translate(42.601608,41.241913)">
    <polyline style="stroke: black; fill: none; stroke-width: 1.5" id="outline" points="
      110.982,-15.311
      110.278,-0.328
      109.575,14.656
      108.872,29.639
      108.169,44.623
      107.466,59.606
      106.763,74.590
      89.628,77.306
      76.430,87.216
      69.770,101.389
      54.807,100.335
      39.845,99.281
      30.807,86.520
      15.667,82.604
      1.575,89.382
      -4.816,103.653
      -0.489,118.680
      12.514,127.367
      28.053,125.612
      38.790,114.244
      53.753,115.298
      68.716,116.352
      75.324,130.988
      88.251,140.515
      86.148,155.366
      84.045,170.218
      81.942,185.070
      79.839,199.922
      66.474,208.041
      61.504,222.867
      67.274,237.401
      81.062,244.780
      96.356,241.519
      105.935,229.159
      105.276,213.535
      94.691,202.025
      96.794,187.173
      98.897,172.321
      101.000,157.469
      103.103,142.618
      112.509,141.166
      121.309,136.902
      128.660,130.065
      133.812,121.146
      136.180,110.853
      135.407,100.058
      150.205,97.608
      165.004,95.157
      179.802,92.706
      193.632,100.838
      208.560,94.961
      213.135,79.584
      203.847,66.503
      187.822,65.752
      177.352,77.908
      162.553,80.359
      147.755,82.809
      132.956,85.260
      121.747,75.293
      122.450,60.309
      123.153,45.326
      123.856,30.342
      124.559,15.359
      125.262,0.375
      125.965,-14.608
      129.056,-33.742
    " />
    <g style="stroke: black; stroke-width: 1; fill: none;" id="pairs">
      <line id="1,65" x1="110.98156" y1="-15.31139" x2="125.96508" y2="-14.60829" />
      <line id="2,64" x1="110.27848" y1="-0.32787" x2="125.26199" y2="0.37521" />
      <line id="3,63" x1="109.57539" y1="14.65564" x2="124.55891" y2="15.35873" />
      <line id="4,62" x1="108.87231" y1="29.63916" x2="123.85583" y2="30.34224" />
      <line id="5,61" x1="108.16923" y1="44.62268" x2="123.15274" y2="45.32576" />
      <line id="6,60" x1="107.46614" y1="59.60619" x2="122.44965" y2="60.30927" />
      <line id="7,59" x1="106.76306" y1="74.58971" x2="121.74657" y2="75.29279" />
      <line id="10,22" x1="69.77039" y1="101.38947" x2="68.71624" y2="116.35239" />
      <line id="11,21" x1="54.80747" y1="100.33533" x2="53.75333" y2="115.29824" />
      <line id="12,20" x1="39.84456" y1="99.28119" x2="38.79042" y2="114.24410" />
      <line id="24,40" x1="88.25115" y1="140.51459" x2="103.10300" y2="142.61765" />
      <line id="25,39" x1="86.14808" y1="155.36642" x2="100.99992" y2="157.46948" />
      <line id="26,38" x1="84.04501" y1="170.21826" x2="98.89685" y2="172.32133" />
      <line id="27,37" x1="81.94193" y1="185.07010" x2="96.79378" y2="187.17317" />
      <line id="28,36" x1="79.83887" y1="199.92194" x2="94.69070" y2="202.02501" />
      <line id="46,58" x1="135.40694" y1="100.05831" x2="132.95628" y2="85.25986" />
      <line id="47,57" x1="150.20540" y1="97.60765" x2="147.75473" y2="82.80919" />
      <line id="48,56" x1="165.00385" y1="95.15699" x2="162.55319" y2="80.35854" />
      <line id="49,55" x1="179.80231" y1="92.70633" x2="177.35164" y2="77.90787" />
    </g>
    <g style="font-family: SansSerif" transform="translate(-4.6, 4)" id="seq">
      <text x="110.982" y="-15.311">A</text>
      <text x="110.278" y="-0.328">A</text>
      <text x="109.575" y="14.656">U</text>
      <text x="108.872" y="29.639">A</text>
      <text x="108.169" y="44.623">A</text>
      <text x="107.466" y="59.606">A</text>
      <text x="106.763" y="74.590">G</text>
      <text x="89.628" y="77.306">U</text>
      <text x="76.430" y="87.216">G</text>
      <text x="69.770" y="101.389">C</text>
      <text x="54.807" y="100.335">C</text>
      <text x="39.845" y="99.281">U</text>
      <text x="30.807" y="86.520">G</text>
      <text x="15.667" y="82.604">A</text>
      <text x="1.575" y="89.382">U</text>
      <text x="-4.816" y="103.653">G</text>
      <text x="-0.489" y="118.680">A</text>
      <text x="12.514" y="127.367">A</text>
      <text x="28.053" y="125.612">A</text>
      <text x="38.790" y="114.244">A</text>
      <text x="53.753" y="115.298">G</text>
      <text x="68.716" y="116.352">G</text>
      <text x="75.324" y="130.988">A</text>
      <text x="88.251" y="140.515">U</text>
      <text x="86.148" y="155.366">U</text>
      <text x="84.045" y="170.218">A</text>
      <text x="81.942" y="185.070">U</text>
      <text x="79.839" y="199.922">U</text>
      <text x="66.474" y="208.041">C</text>
      <text x="61.504" y="222.867">U</text>
      <text x="67.274" y="237.401">G</text>
      <text x="81.062" y="244.780">A</text>
      <text x="96.356" y="241.519">U</text>
      <text x="105.935" y="229.159">A</text>
      <text x="105.276" y="213.535">G</text>
      <text x="94.691" y="202.025">G</text>
      <text x="96.794" y="187.173">A</text>
      <text x="98.897" y="172.321">U</text>
      <text x="101.000" y="157.469">A</text>
      <text x="103.103" y="142.618">A</text>
      <text x="112.509" y="141.166">A</text>
      <text x="121.309" y="136.902">U</text>
      <text x="128.660" y="130.065">U</text>
      <text x="133.812" y="121.146">A</text>
      <text x="136.180" y="110.853">U</text>
      <text x="135.407" y="100.058">G</text>
      <text x="150.205" y="97.608">U</text>
      <text x="165.004" y="95.157">A</text>
      <text x="179.802" y="92.706">A</text>
      <text x="193.632" y="100.838">U</text>
      <text x="208.560" y="94.961">U</text>
      <text x="213.135" y="79.584">A</text>
      <text x="203.847" y="66.503">U</text>
      <text x="187.822" y="65.752">U</text>
      <text x="177.352" y="77.908">U</text>
      <text x="162.553" y="80.359">U</text>
      <text x="147.755" y="82.809">A</text>
      <text x="132.956" y="85.260">C</text>
      <text x="121.747" y="75.293">C</text>
      <text x="122.450" y="60.309">U</text>
      <text x="123.153" y="45.326">U</text>
      <text x="123.856" y="30.342">U</text>
      <text x="124.559" y="15.359">A</text>
      <text x="125.262" y="0.375">U</text>
      <text x="125.965" y="-14.608">U</text>
      <text x="129.056" y="-33.742">A</text>
    </g>
  </g>
</svg>
